<svg version="1.0" xmlns="http://www.w3.org/2000/svg" viewBox="0 0 755 1057"><g fill="currentColor"><path d="m22 3-8 3C7 10 2 18 2 25L1 534l1 503 3 5c3 5 6 8 12 12 3 1 14 2 361 2 346 0 357-1 360-2 6-4 10-7 13-12l3-5V22l-3-6c-3-5-7-8-13-12L380 2 22 3zm716 6c6 4 9 7 11 14s2 1005 0 1012-5 11-11 14l-4 3H22l-5-3c-6-3-9-8-11-15L5 527V23l3-4c3-6 9-11 14-12l358-1 354 1 4 2z"/><path d="M63 529v467h629V61H63v468zm618 0v455H75V73h606v456z"/><path d="M80 529v450h596V78H80v451zM451 85l16 1 11 1-2 3-8 1h-6l2 4c2 5 2 14 0 17-2 2-6 3-6 1l2-3c3-2 2-3-4-2l-7-1c-2-2-1-4 1-4l4-1c2-1 3-2 3-5 0-4-3-7-7-9-3-1-4 0-1 2 2 1 3 4 1 7-1 3-2 2-5-1s-8-5-13-4-13 6-16 11l-3 4v-3c0-5 9-15 17-19 6-3 13-3 21 0zm-209 2c7 3 7 3 8 1s1-2 4 0c4 3 14 6 24 7h10l-4 2c-3 1-10 3-17 3l-16 4c-4 1-5 0-5-3 0-1-2-2-7-2l-17-4a86 86 0 0 0-15-4c-1-1 0-2 4-4 12-5 20-5 31 0zm84-2c7 4 19 18 17 21l-5-5c-9-10-21-12-28-5-2 3-3 3-5 2-2-2-1-7 1-9 4-2 3-2-1-1-9 4-9 15 0 15 2 0 3 2 0 4l-7 1c-5-1-5-1-4 1l2 2c2 1 1 3-1 3-5 0-7-11-4-19l2-4-4 1c-5 0-9-1-11-4-1-1 0-2 11-2l16-1c7-3 15-2 20 0zm40 1c0 2-2 5-4 3s-2-3-1-5c2-2 4-1 5 2zm29 0c0 3-2 5-5 3v-5c2-2 5-1 5 2zm144 0c3 0 7 2 8 3l3 2h-3l-14 4-17 4c-6 0-7 0-7 3s-1 3-6 1l-16-3-16-3-3-2h6c8 0 19-3 25-6l6-2c0 3 2 3 7 0 10-4 15-5 27-1zm-370 3c3 1 9 6 11 10l2 8 2 5 1-3c1-4 3-4 4-1 2 4 1 6-4 6-5 1-6 1-6-2 0-4-4-13-7-15l-2-3 2 4c2 3 5 13 5 16 0 1-6 4-9 4-2 0-2 0-2-4l2-5 3 2 3 3c2 0 1-3-2-6-3-4-8-15-9-21v-4l1 3 4 3zm174-4c1 2-1 5-2 5-2 0-4-3-3-4 0-2 5-3 5-1zm75 0c0 2-2 5-4 5-1 0-2-2-2-5 1-2 5-1 6 0zm172 10-7 14c-2 1-3 5-2 5l4-3c2-2 3-2 3 0v7l-9-3c-1-1 1-11 4-17l1-2c-3 2-7 10-8 15v4l-5-1c-6 0-7-1-5-5 1-4 3-4 4 0 2 4 3 4 3-1 0-7 6-15 14-19l4-3v-3l1 3-2 9zm-433-6c0 2-1 3-3 3l-3-1c-1-3 1-5 3-5s2 1 2 3zm447-2v3c-3 4-7 1-6-3l3-1 3 1zm-466 2c7 2 17 13 20 20 3 8 2 12-1 13-2 1-4 1-7-1-4-3-5-3-2 1l1 3-7-9c0-2 4-1 8 1 2 1 3 2 4 1s-5-10-9-13c-9-6-20-8-29-3l-4 2c-2-1-1-6 1-8v-2c-10 5-10 5-14 4-3-1-9-7-9-9l4 1c5 1 8 1 18-1 11-2 19-2 26 0zm55 1c0 2 0 3-2 3l-3-1c-1-3 1-5 3-5s2 1 2 3zm374 0c0 2-1 2-3 2-3 0-4-3-2-4 3-2 5-1 5 2zm79-1c9 2 12 2 19-1 4-1-3 6-7 9-4 2-5 2-8 1-6-2-5-3 1-2 4 0 7 0 9-2 3-2 2-2-2-1l-10 1h-7l2 3c2 4 2 5 1 7-1 1-2 0-7-2-5-3-6-3-12-3l-11 4c-6 3-12 10-12 14v2l3-2c3-2 7-3 8-1l-3 4c-1 3-3 4-3 3l2-3c2-3 1-2-4 1-6 4-11 1-10-5 1-5 6-14 9-18 11-11 22-13 42-9zm-272 1c1 1 0 4-1 3v-4l1 1zm9 1-1 2-1-2 1-2 1 2zm-32 9c0 7 1 9 3 16a667 667 0 0 1 11 34v4h30l10 1c1 2-1 2-27 2l-28-1c-1-1 5-2 10-2h3c0-2-5-14-8-17-6-9-16-16-24-19-6-2-7-3-5-4v-1c-3 0-6 3-6 5 0 3-4 6-6 6-5 0-2-6 4-9 2 0 3-1 2-2-1-3 12-4 21-2 5 2 9 6 8 8s0 5 2 5l1 1 2 2 1-2-1-1-2-4-4-7c-2-3-2-4-2-10l1-9 3-2 1 8zm59-1c2 4 1 9-3 15s-5 9-2 9c1 0 2-1 2-4 0-4 1-5 4-6 7-4 25-4 24 0l2 2c6 3 10 9 5 9-3 0-7-4-7-7 0-1-3-4-5-4v3c-17 5-27 13-34 29-3 6-5 9-6 8-2-3 0-8 11-35 3-8 3-11 4-17v-8c0-2 4 2 5 6zm-39-5-1 1-1-1v-1l2 1zm16 0-1 1-1-1 1-1 1 1zm-10 2-1 2-1-2c1-2 2-1 2 0zm4 0-1 2-2-2 2-1 1 1zm-8 3c5 3 5 6 2 10-3 2-3 2-5 1-3-1-4-3-2-6 1-2 1-2-1-2s-4 1-5 3c-3 4-5 2-5-3 0-6 9-8 16-3zm24 0c2 2 2 3 1 6l-1 3-3-3-6-3c-2 0-2 0-1 1v7c-3 3-8 0-9-6 0-3 0-4 2-4l4-3c4-2 11-1 13 2zm-168 1c2 2 2 2 1 3-7 1-7 1-7 6 0 9 4 14 11 16 5 0 3 2-4 2h-5l-1-1-4 1c-2 1-2 1 0 0 1-2 1-2-2-1-3 0-3 0-1-2 2-1 1-1-1-1h-3v-3l-1-6-1-4 1 4c2 3 4 5 5 4l-1-3c-2-4-2-5 0-7l1-3c-2-3-7 1-8 7-1 3-4 6-7 6-1 0-1 1 3 4 5 6 7 11 5 22-1 10 0 20 3 24 5 6 12 11 15 11l5 1h4c2-1 2-1-1-3-4-2-6-6-7-10 0-3 0-4 3-7 2-3 3-3 6-3 4 0 5 3 2 6-2 1-3 1-4-1-1-3-1-3-2 0-2 7 5 13 13 12l13-8c11-7 37-21 48-24 17-6 31-6 40-2 4 3 12 10 12 12s-3 1-4-1c-2-2-10-5-15-5-10-1-14 4-14 16l2 8c3 4 2 5-2 3-3-1-3-1-3 1 0 4 3 10 6 12l6 2c3 1 4 0 3-2 0-3 3-2 4 1 1 9-14 4-20-6-2-5-2-7-2-14 0-9 0-9-2-7l-2 7c-2 15-5 20-12 25l-5 3v-15l-3 5c-5 7-15 12-22 12-3 0-9-3-9-4l-2-3c-1-1-1-1 1-1s2 0 0-1l-3-4 3 1c3 3 18 3 24 0 3-2 11-8 11-10l-5 1-9 2h-3l2-4c5-8 9-12 18-16l8-3-5 1c-14 1-27 6-38 14-9 7-21 19-27 27a801 801 0 0 0-54 70c-6 7-7 9-10 17-3 7-4 9-5 8l-1-7-1-5-13 8c-5 5-1 13 5 11 2 0 3-1 3-3 0-3 0-3-2-3-2 1-3-1 0-1 4-2 5 5 1 10-3 4-5 4-10-1l-5-3c-2 1-8 11-10 18l-3 13-1 7c-2 0-5-3-5-5 0-4-3-3-8 1-15 11-19 17-19 28 0 5 0 6 2 7l4 2 2 1-4 1c-4 0-7-4-7-10v-4l-2 5c-9 18-12 45-5 57 2 4 1 5-2 3-5-5-7-21-5-36l5-19c6-19 13-31 28-46l9-10c-4 0-9 2-11 5-2 4-8 7-10 7l-5 3-7 7c-3 2-4 3-4 6 0 4-2 5-3 2 0-4 2-8 8-13l5-3-3-2c-5-1-7-3-7-5 0-5 8-4 11 0 3 3 5 3 9 0 3-3 3-5-2-6-6 0-13-4-16-7-4-3-7-11-8-18l3-16c2-9 2-12 2-23 0-9-1-12-2-14l-2-4c0-2 7 0 10 2s4 2 4-2c0-3-1-5-5-8-6-6-7-8-6-11 0-4 2-3 2 1 0 3 1 4 6 7 8 5 9 8 6 16-2 5-2 6-1 9v13c-1 2 0 1 4-1 5-2 11-3 18 0 14 5 19 19 11 29-6 6-19 1-19-8 0-3 2-6 4-6s5 2 5 4-4 4-5 2c-2-1-2-1-2 1 0 3 3 6 7 6 5 0 7-1 8-6 1-3 1-4-1-8-2-5-7-7-14-7-8 0-13 2-16 8-2 4-3 12-2 18l1 5 1-4c2-4 5-7 9-8h3l-3 2c-5 6-3 13 4 17 5 3 14 4 19 2l3-1-2-2-5-5h4c9 0 19-10 18-19 0-3-1-3-4-3-4 0-5 0-2-3 1-2 3-2 8-2 8 0 9-1 13-10l2-7-3 3c-4 3-13 7-15 7-3 0-9-3-9-4l5-1 13-7h-4l-12 1c-13-1-20-5-21-13-1-7 6-12 11-7v3h-3c-3-1-3-1-3 1 0 4 4 6 11 6 5 0 13-2 13-4 0-3-4-8-7-9-4-2-5-3-5-9s4-13 11-20c9-9 10-13 5-22-3-6-3-7 2-5l2 3c-1 1 0 1 1 1 2 0 3 1 1 3-1 1-1 1 2 1 3-1 4 0 1 2l-2 3c-1 1 0 1 2 1 4-1 4 0 0 3l-3 3h2c4-1 4 0-2 5l-4 5 12-7c4-4 5-8 4-15v-8c1 0 3 7 3 13 0 7-1 10-11 20-14 12-16 15-11 20l4 5c1 2 22-13 24-17 3-4 3-11 1-11l-6 2-4 2 1-2c1-3 4-4 8-4s8 3 8 6 1 3 4 0l6-3 7-3c5-4 8-5 8-3l2 1c2 0 5-4 4-5l-8-8-12-9-3-3 6 3 12 8 8 4c2-1 2-1 1 1l1 1c2-1 2-6 0-7-12-6-17-10-20-16v-5l-2-1c-2-1-2-1 0-3v-2l-4 1c-3 1-3 1 1-5 2-3 2-4-4-2-2 1-2 1 2-3s4-5-3-2h-4l5-4c3-2 3-5 0-3l-6 2-3 1 2-2 5-4 1-2c-1-1-2 0-5 1-6 2-7 1-3-2l4-3h-3l-5 2c-2 0-2 0 0-2l3-3h-3l-6 3c-2 1-2 2-2 8l1 7-2-4-2-7c0-2 0-2-3-2-5 1-11 5-11 7 0 1 3 3 17 10 10 5 11 6 16 17 8 22 11 25 21 25l6 1c1 2 0 3-2 2h-3l-3 2-3-1c1 0-8-3-9-2s3 3 6 3h3l-3 2-5 2c-2 0-6-5-9-10l-7-10c-4-6-5-7-10-8l-14-2-12-2c-5-2-12-9-13-13-1-5-2-3-2 2l-1 7-12 7c-10 5-11 6-15 13-5 7-5 8-5 15 0 6 0 7 3 12 6 11 23 14 27 5v-6c-1-5-4-6-8-6h-3l3 1c4 1 7 5 5 8-4 4-11 3-16-3-5-5-5-7-5-14 1-6 5-13 11-18s18-12 21-12c2 1 2 1-1 2-5 3-18 11-22 15-7 6-9 15-5 23 1 4 3 5 3 2l3-4c7-7 17-2 17 7 0 4 0 5-4 8-3 4-5 4-9 4-9 0-18-7-23-17-7-16 3-37 26-51 8-4 9-6 11-10 4-9 11-14 28-21 9-3 18-5 30-6l11-1 1-6 3-7c4-4 15-5 21-1zm314-1c4 2 5 4 7 10l2 5 11 2c16 1 26 4 38 10 11 6 17 11 19 17 2 4 3 5 10 9l15 12c13 11 18 27 12 39-2 6-9 13-14 16-13 6-26-4-20-15 3-6 10-7 15-2l3 4c0 3 2 2 4-1 2-4 1-13-1-18s-8-10-20-17-10-8 3-1c14 7 21 16 21 28 0 9-6 16-15 16-8 0-8-7 0-10 2-1 2-1-1-1-5 0-8 3-8 7 0 7 4 10 11 10 5 0 7-1 10-3 6-5 9-10 10-18 0-6 0-7-3-13-4-8-8-11-18-16l-11-6-2-8c-1-6-1-6-2-1-2 8-13 14-26 14-10 0-17 2-20 6l-4 5-7 11c-6 8-8 9-13 6l-4-2-4-2h-4c-2 1-2 1-2-1 1-1 2-2 6-2l10-2c3-3 7-10 10-18l4-11 4-6 11-6 14-7 2-2-2-2-7-4-5-2-1 4c-1 5-3 10-4 9l1-5c2-6 1-8-4-10-6-3-7-2-3 1 2 2 2 2 0 2l-5-2h-3l3 3 4 3-3-1-5-1c-4-2-3 1 1 5l4 3-6-2c-6-1-9-1-4 1l4 4 2 2-5-2-6-1 4 4c5 5 5 5-1 3-4-2-4-2 0 4l2 3h-4c-4-2-5-2-3 1 2 1 2 2 1 2l-3 5c-1 3-2 6-5 9-6 5-10 8-13 8-2 0-5 4-4 6s3 3 3 1c0-1 1-2 2-1l6-3 12-8c7-4 7-4 5-1l-12 9c-8 5-9 7-9 9 1 3 3 5 6 3 3-1 5-1 8 3l6 2 6 3c4 3 5 4 5 2l3-4c3-4 8-4 11-1 4 3 4 4-1 2l-5-2c-4 0-3 9 1 13l12 9 10 7 4-4 4-6c0-3-5-10-12-16-10-8-13-12-13-19 0-6 1-11 3-13v7c0 12 2 16 12 20l6 2-5-4-5-5c-1-2-1-2 2-1 4 0 4 0 0-3-5-3-5-4-1-3 3 0 3 0 2-2l-2-2c-2-2-1-3 2-2 2 0 2 0 1-2s-1-2 1-2c2 1 2 1 2-1-1-1 0-2 2-3 4-2 5-1 2 3-6 8-5 14 4 24 8 8 11 14 11 20s0 7-5 9c-5 3-7 9-4 11s11 3 15 2 8-4 7-6-3-3-3-1-3 1-4-1c0-1 2-4 5-4 6 0 8 9 4 14-4 6-9 7-19 8l-12-1-3-1 2 2c2 3 9 6 12 6l3 1c0 4-10 5-16 2l-7-6-4-2 7 16 8 1c7 0 10 1 10 4h-3c-4 0-4 0-5 2-2 10 12 23 21 21 2-1 2-1 1 1l-4 4-2 1 3 2c10 4 25-3 25-11 0-3-1-5-3-7s-2-3 0-3c4 0 10 6 10 11 0 4 2-4 2-10 0-4-1-7-3-11-3-7-7-9-15-9-7 0-10 1-13 5-4 3-4 11 0 14 4 4 12 2 12-3 0-2 0-2-2-1-2 0-5-1-5-4 0-2 5-3 7-2s2 2 2 5c0 4 0 5-4 8-3 3-4 3-8 3-5-1-9-5-11-11-2-15 20-29 34-20 4 2 4 2 4 0-2-5-2-8-1-12v-9l-2-7c0-3 2-5 11-13l3-6c0-2 0-2 1-1 2 3 0 7-6 13-4 4-5 5-5 8 0 4 1 5 5 2 2-2 7-3 9-2l-1 3c-2 3-2 4-2 17 0 11 0 15 2 22 6 21-1 35-19 40l-7 2 5 6c3 1 3 1 5-1 5-6 13-6 12-1 0 2-3 4-8 6-1 1 0 2 1 3l6 5c4 3 4 5 4 7l-1 3-1-2c0-3-2-6-7-10l-5-5c-1-1-2-2-5-2-4-1-10-5-10-8-1-2-6-4-10-4-1 0 3 5 9 10l13 15c5 8 14 26 17 37 2 8 2 10 2 24 1 14 0 15-2 20l-4 6c-2 0-2 0 0-5 6-12 3-38-5-57l-3-5v5c0 6-3 10-7 10s-4-2 0-3c4 0 5-4 5-10-2-10-7-17-19-26-7-4-8-5-8-3s-4 7-5 7-2-2-2-8l-3-14c-3-7-8-16-10-16l-5 4c-4 4-6 4-10 0-3-3-4-6-2-9 1-2 3-2 5 0 1 1 1 1-1 1-3-1-4 1-1 4 2 3 6 3 7 0 2-3 1-7 0-10-2-2-9-6-13-7-2-1-2-1-2 4s-1 9-2 8l-2-6c-3-9-7-14-13-22l-12-15c-20-29-38-51-52-65a93 93 0 0 0-32-24c-7-3-23-7-25-6l6 3c4 2 9 4 10 6 3 2 10 12 10 14 0 1-8 0-12-2l-5-2c-1 1 7 9 11 11 6 3 20 3 24 0 4-1 4 1 0 3l-2 1h2c3-1 4 1 1 2l-1 1-4 3c-9 5-22-1-29-12l-2-3 1 7-1 8c-2 0-11-9-13-12l-2-12-3-11c-2-2-2-2-2 5 0 13-4 22-13 25-5 3-9 2-9-1-1-2 0-5 2-5l1 3c0 3 1 3 7 0 5-2 7-5 8-11 0-4 0-4-2-3l-4 1c-1-1-1-1 1-4 2-2 2-4 2-10 0-8-1-8-4-11s-4-3-11-3c-6 1-8 1-12 4-5 4-6 4-4 0s10-10 16-12c7-2 18-1 29 2 10 3 36 15 52 26l16 8c7 1 13-5 12-11l-1-3-2 2c-2 2-4 2-5-1-2-3 3-5 8-3 2 1 4 6 4 10-1 3-5 9-8 10-2 1-2 1 0 2h4l5-1c3 0 5-1 10-7l8-9v-16c0-16 0-19 6-24l4-4-4-2c-3-1-4-2-5-6-1-5-4-8-6-6v9l-2 4c2 1 4-1 5-4s1-3 1 1l-1 6c0 3 0 3-3 3-2-1-2-1 0 1 1 1 1 1-2 1-4-1-4-1-2 1l3 1h-3l-5-2-1 1c1 1-6 1-11-1l3-1c5-2 8-5 10-11 2-7 0-11-5-11-4 0-3-2 1-4h15zm-442 2-2 5c-1 4-1 11 2 15l5 4 3 2c0 2-5 2-8 1s-3-1-6 2l-4 3c-2 0-2 0 0-5l2-12 4-12c2-4 4-5 4-3zm557 2c2 2 2 4 5 19l3 9c1 3-4 2-6-1s-2-3-7-2h-6c-1-2-1-2 3-3 6-2 9-11 6-21l-1-4 3 3zm-371 2c-3 10-6 14-14 19-8 3-12 4-16 3-4-2-5-5-2-4 4 0 4-1 2-3l-5-5c-1-3-1-3 1-5l1-2 2 3c1 3 3 4 8 5s5 1 2-3c-2-2-3-5-1-5l3 2c4 4 11 2 15-4 4-5 4-5 4-1zm35-1c3 2 6 6 3 4h-5c-4 0-4 0-2-1 3-1 3-1-1-2l-3-2c0-2 5-1 8 1zm120 0c2 2-1 4-6 4h-5c-2 1-2 1-1-1s7-5 9-5l3 2zm40 8 5-2 3-2c2 0 1 4-1 5-3 3-1 4 4 3 4 0 7-3 7-6 0-2 2-2 3 0 2 3 0 7-4 10-3 2-3 4 2 3 3-1 3 0 0 2-4 4-17 1-25-6-3-2-4-5-6-9l-2-7 5 4c4 4 7 5 9 5zm-167-5-3-2h2l1 2zm-83-1c3 0 3 3 0 6l-3 4c0 3-3 1-4-4-1-6 1-8 7-6zm298 3c0 4-2 9-3 8l-4-4-3-4 2-2 5-2c3 0 3 0 3 4zm-401-1c7 3 10 15 4 21l-4 4-6 3-6 3c-3 0-3 0-3 2 0 4 4 6 7 4 3-1 3-1 3 1 0 5-9 8-14 4-2-2-2-3-2-7 0-5 0-6-3-9l-4-3 6 2c7 2 12 2 15-3l2-4h2c2 2 4 1 6-3s0-10-4-13c-6-2-12 1-12 6 0 3 1 4 2 1l3-1c2 0 3 4 0 6-2 3-3 2-6-1-4-4-3-11 3-13 3-2 6-2 11 0zm508 0c6 3 7 11 1 15-2 1-2 1-4-1l-2-3c0-3 3-4 4-2 2 2 3 1 3-2 0-5-9-7-14-3-3 3-3 10 0 14 2 2 2 2 4 0l1-1 3 5c4 5 7 6 15 3 5-2 7-1 2 2-3 1-3 2-3 7s0 6-2 8l-6 2c-3 0-8-3-8-6 0-2 0-2 2-1s7 0 8-1c1-2 0-5-3-5l-6-3-6-4c-9-4-9-18 0-24 4-2 7-3 11 0zm-254 7c0 3-4 11-5 11-2 0-4-3-5-8-1-4-1-4 2-6l2-3 3 2 3 4zm-66-3-4 2-4 2-2 1c-1 0-2-2 0-4l10-1zm131 2c2 2 2 2 1 3-2 0-3 0-3-2l-3-1-3-1c-1-1-1-1 3-1l5 2zm75 4c-1 3-4 4-4 1l-1-3-1 3c0 3-2 4-2 2 0-3 0-5 2-7l2-2 2 2 2 4zm-284-2 2 4c-1 3-3 1-3-2v-3l-1 3c-1 3-4 4-5 2l4-7 3 3zm70 5c-4 4-8 5-8 2 0-2 3-4 6-4 2 0 3 1 2 2zm18-1-1 1-1-1 2-1v1zm103 0v1l-2-1 1-1 1 1zm23 1c3 3 2 4 0 4s-4-1-5-3l-3-3h3c3 0 4 0 5 2zm-126 5-3 5c-5 5-10 3-8-2 2-7 11-9 11-3zm111 0c3 4 2 7-1 8-5 0-11-8-8-11 3-1 6 0 9 3zm-126 4c-1 2-5 4-7 3s-1-3 1-6c2-2 2-2 4 0l2 3zm139 0c1 2-1 4-5 3-3-1-4-4-2-6s3-2 4-1l3 4zm15-3 8 5 7 5c6 4 20 2 34-4 12-5 22-4 22 1 0 2-1 2-4 2l-3 1 1 1v1h-5c-3 0-4 0-3 1l1 1h-6c-6 0-6 0-5 1 1 2 0 2-5 1-4 0-5 0-4 1s1 1-2 1l-6-2-2 1h-6c0 1-1 1-3-1l-4-1-4-1-5-3c-3 0-5-3-2-3l1-1c0-1-8-6-11-6-2 0-3-1-1-2 1-1 2-1 7 1zm-169 0-2 1c-3 0-7 2-9 5l-1 2c3 0 2 2-2 3l-5 2c-2 2-11 5-11 4l-2-1-3 2-1-1c1-1 1-1-1-1l-6 2-3-1c1-1 0-1-5-1-6 1-6 1-4-1h-4l-7-1 1-1c1-1 0-1-3-1h-5v-1l1-1-4-1c-3 0-4-1-2-4l5-2c5-1 11 0 18 4 5 3 16 5 23 5s12-2 18-7l5-5h9zm-1 3c1 1 0 1-1 2-4 1-4 3-1 2 4 0 4 2 0 3h-4c-2 1-2-3-1-5l6-3 1 1zm168 0c3 2 3 2 3 5-1 3-1 3-7 1-3 0-2-2 2-2 1 1 2 0 1-1l-3-2-2-1h6zm-84 3c0 3-1 4-3 3-2 0-3-3-1-5 2-1 4 0 4 2zm-280 8 2 10c1 8 0 17-3 20-6 5-17-3-14-10l2-3c3-1 7 1 7 3 1 3-1 5-3 5h-1l5 1c5 0 7-14 2-26l-2-8c0-2 4 4 5 8zm559-2c-3 4-4 14-4 20 1 7 5 11 9 8 2-2 2-2 0-2s-3 0-3-2c-1-5 4-7 8-3 6 5-3 15-11 12-7-3-7-24 0-37 1-2 1-2 2-1l-1 5zm-279 3 1 6c0 5 0 5-3 5-3-1-4-1-3-5 0-7 3-10 5-6zm-99 1-9 6c-7 3-9 4-15 4-8 0-20-2-29-4l-11-1h-2c2-3 7-2 20 0 11 2 29 3 34 1l7-4c5-3 7-4 5-2zm209 7c8 1 21 0 31-2s17-3 19-1c1 2 0 2-4 2l-19 2c-18 3-25 3-34-2l-8-6 4 2 11 5zm-133 11c2 0 4 2 5 4 3 3 3 3 2 1 0-4 2-5 4-2s3 10 1 10l-3-3-1-2v2c-1 3-2 3-3 0l-4-6c-3-3-5-4-8-4-5 0-8 2-8 7l2 6c3 3 4 2 5-1l2-2c1 0 3 2 3 4 0 7-12 6-15-1-2-5-2-6 0-10 2-6 11-7 18-3zm57 0c6 5 4 15-3 18-4 2-8 1-9-1-1-3-1-4 1-6h3l1 3c0 2 2 1 4-1l2-6c0-10-14-9-19 2-2 4-3 4-4 0-1-1-1-1-1 1s-3 4-4 1l1-5c0-3 1-4 3-4s2 0 2 3l-1 2 3-3c3-4 7-6 14-6 4 0 5 0 7 2zm-39 3 1 5c0 7-3 6-4-1-1-6 1-8 3-4zm9 3c-1 6-2 7-4 6-2-2-1-11 3-11l1 5zm-26 0 2 4c0 2 0 2-1 1l-3-4c-3-3-2-4 2-1zm43-1-3 4c-2 3-3 3-3 1l2-4c2-2 4-3 4-1zm-255 11c3 4 2 10-2 13-4 2-8 3-10 0-2-2-2-2-1-5 1-1 2-3 4-3s3 2 0 3c-2 1-1 4 1 4 4 0 8-4 8-7-2-5-6-6-14-4-6 2-6 2-1-1s12-3 15 0zm215 5 4 6c2 2 2 2 0 2-5 0-10-8-7-14l3 6zm37-1c0 4-5 9-7 9s-2 0 0-3l4-7c1-5 1-5 3-3v4zm227-4c4 3 3 3-2 1s-10-1-12 1c-3 3-3 5 0 7 5 5 11 3 6-2-1-2-1-2 1-2s5 4 5 7c-1 2-5 3-8 3-8-2-10-10-5-15 2-2 3-2 7-2l8 2zm-257 3 3 6c2 4 1 5-3 2-6-4-8-13-3-12 2 0 3 1 3 4zm8 0v7c0 3 0 3-2 2-3-3-5-10-3-12 1-2 4-1 5 3zm9-1c0 3-3 11-5 11v-13c2-2 4-1 5 2zm7 1c0 3-2 7-6 9-3 2-3 1-1-4l3-7c1-4 4-2 4 2zm-70 10v3c-2 3-4 2-5 0-1-1-1-2 1-4 1-1 3-1 4 1zm116 0c2 2-1 5-3 4-3-1-3-3-1-5 1-1 3-1 4 1zm-53 4h-15v-1c1-1 16 0 15 1zm11 3 2 2c0 2-3 2-21 2-17 0-20 0-20-2l2-2h37zm122 9 1 2-142 1c-147 0-144 0-140-4l140-1c134 0 140 0 141 2zm-285 8c0 2-2 2-3 0 0-2 0-2 2-2l1 2zm19-1c0 2-3 4-4 3-1-2 1-4 2-4l2 1zm17 1c0 2-2 2-3 0 0-2 0-2 2-2l1 2zm19-1c1 1-1 3-2 3-2-1-1-4 0-4l2 1zm17 0c1 1-1 3-2 3-2-1-1-4 0-4l2 1zm20 0-1 2c-1 1-3-1-2-2 0-2 3-1 3 0zm18 2-2 1c-1 0-2-2 0-3 1-1 2 0 2 2zm36-1c0 2-2 3-3 1l2-3 1 2zm18 2-2 1c-1 0-2-3-1-4 2-1 4 1 3 3zm19-2c0 1-2 3-3 2-2-1-1-4 1-4l2 2zm18 0-2 1-2-1c0-2 0-2 2-2 1 0 2 0 2 2zm20 0-2 1-2-1c0-2 0-2 2-2 1 0 2 0 2 2zm17 0-2 1-2-1c0-2 0-2 2-2 1 0 2 0 2 2zm18 0-1 2c-2 0-3-2-3-3 2-2 4-1 4 1zm18 0c1 2-1 3-3 2-1-2-1-4 1-4l2 2zm18-1c1 1 0 3-2 3-1 0-2-2-1-3h3zm-163 2-2 1-2-1c0-2 0-2 2-2 1 0 2 0 2 2zm170 7 4 5 2 4v592c0 3-1 5-4 8l-4 5H225l-4-4-4-5V230l4-4 4-5h152c134 0 153 0 155 2zm-419 27c0 2 0 3-2 3s-4-2-3-5l3-1c2 0 2 1 2 3zm534 0c0 3-3 4-5 2s-1-5 2-5c2 0 3 1 3 3zm-435 2c0 2-2 2-3 0 0-2 0-2 2-2l1 2zm335 0c0 1-3 3-4 1v-2c0-2 3-1 4 1zm9 278 1 272-3 3-3 3V250l3 3 2 3 1 273zm-352 89v189l-3-4-2-3V257l2-3 2-4 1 90v278zm342-347-2 1c-1 0-2-3-1-4 2-1 4 1 3 3zm-333-2-3 3c-2-2-1-4 1-4l2 1zm-22 13c4 5 1 13-7 18l-3 2 3 1c4 3 7 7 7 14 0 8-3 12-10 12-3 0-7-4-7-7 1-2 2-2 4-2 2 1 3 1 5-1 3-4 4-7 1-10-2-3-3-3-6-3-6 0-8 2-4 4 5 2 5 4 1 4-10 0-13 17-6 35l3 7-4-1c-3-2-5-3-6-6-6-15-5-30 2-40l11-11c10-7 12-10 12-15s1-5 4-1zm377 1c0 4 1 5 6 10l11 10c4 3 7 7 9 11 2 5 2 6 2 16 0 9 0 12-2 17s-3 6-7 8l-4 2 1-2 2-6c4-8 5-24 2-31-1-2-3-3-6-3-5-1-5-4-1-5 3-2 4-2 2-3h-10c-3 2-4 5-3 9 2 4 2 4 8 4 3 0 4 4 1 7s-8 3-12 0c-2-2-2-4-3-9 0-7 2-12 7-14l4-2-3-2c-5-3-10-9-10-13 0-2 4-8 5-8l1 4zm-355 5c-1 2-2 2-3 0l1-2 2 2zm333 0-2 1-2-1c0-2 1-2 2-2 2 0 2 0 2 2zm-424 6-1 3c-3 2-6-2-4-4s5-1 5 1zm517 0-2 3c-3 2-6-2-4-4s6-1 6 1zm-426 12-1 2c-2 0-3-2-3-3 1-2 3-1 4 1zm333 0-1 2c-1 1-3-2-2-3 1-2 3-1 3 1zm-394 4c0 3-2 3-4 2v-3c1-1 4 0 4 1zm455 0c1 2-1 4-2 2-1-1-1-4 1-4l1 2zm-61 16-1 1c-2 0-3-3-2-4 2-1 4 1 3 3zm-333-2-3 3c-2-2-1-4 1-4l2 1zm-64 6c2 3-2 7-4 4-2-2-2-2-1-4h5zm462 1c2 3-1 6-3 4s-2-5-1-5c2-1 3-1 4 1zm-421 6c1 1 1 2-1 3-1 2-3 2-4 0v-3c2-3 4-2 5 0zm380 0c2 3-1 6-3 4s-2-5-1-5c2-1 3-1 4 1zm-357 6c0 2-3 2-4 0 0-2 0-2 2-2l2 2zm334 0c0 1-3 3-4 1v-2c0-2 3-1 4 1zm-425 0-2 4c-3 4-2 11 2 16l3-2c4-4 6-4 7 0 0 3-2 7-5 7-2 0 0 2 2 3s5 0 10-1l9-2c2 0 2 1-3 3-5 3-8 8-9 14-1 5-1 8 4 13 3 4 4 5 3 7-2 2-10 0-11-4-1-2-3-3-3-1l4 9c3 2 9 3 13 2 5-1 9-5 9-8s2-2 3 1c2 4 4 2 4-4s-3-10-7-10c-3 0-4 1-4 3 0 3-3 5-5 3-3-3 0-7 7-9 6-2 10 1 12 10 2 12-9 23-22 23-6 0-14-4-17-10-3-4-3-5-3-11 0-7 0-7-3-10-4-4-8-5-12-3s-5 5-4 8c0 2 0 1 3-2 4-3 4-3 7-3 6 3 2 11-5 11-3 0-3 0-3 5 0 6 3 9 9 12 5 2 5 3-1 2-7-2-12-11-10-18 0-1 0-3-2-4-4-5-1-13 7-15 4-1 10-1 13 1 3 3 4 2 6-2l2-4-3-2-4-5-4-7c-3-3-4-5-4-8 0-5 1-7 4-11 2-2 5-3 3-1zm514 1c3 3 4 6 4 10s-2 9-5 11l-2 4c-1 3-5 7-7 7l-1 1c3 6 5 8 6 8l6-3c8-3 16 1 18 7 0 3 0 5-2 7l-1 7c0 7-4 14-11 16-6 1-6 0-1-2s8-5 9-9c1-6 0-8-3-8-6 0-11-8-6-10 3-2 7 0 9 3s3 3 3-1c0-5-6-8-13-5-5 2-7 5-7 13 0 7-2 10-6 15-11 9-28 5-34-7-2-3-2-13 0-17 3-4 4-5 9-5 5 1 9 4 9 8 0 2 0 2-3 2-2 0-3-1-3-2 1-5-7-5-9 0-2 4-2 9-1 12 2 1 2 1 2-1l3-4c1-1 1-1 1 1l3 6c3 3 4 3 10 3s7 0 10-3c2-3 3-5 3-8v-4l-2 4c-1 4-5 6-9 6-4-1-4-4 1-9 4-4 4-4 4-9-1-8-5-15-11-17l-5-2 4-1 9 2c5 2 9 2 12 0 1-1 0-2-2-3-3-1-4-2-4-5 0-5 4-5 8-1l2 2 2-2c4-5 4-9 0-14-3-5-3-7 1-3zm-456 16 5 14 6 14c5 13 2 33-5 45-6 9-18 16-27 16-4-1-4-2 0-4 9-2 16-12 20-22v-18l-1-13c-1-1-2-1-1 2v4l-5-5c-3-6-3-7 2-7l6 3c3 3 3 3 3 7-1 4 0 6 1 2 2-5-4-19-11-24-5-4-13-4-18-1s-6 3-4-1c1-4 5-6 11-7h6l-1-3c-2-3-2-6-1-6l4 2 4 3v-6c0-5 1-7 2-9l2-3v5l2 12zm-37-10-4 1c-2 0-2 0-2-2s1-3 3-3c3-1 4 1 3 4zm5-3c1 2 0 3-1 3-2 0-2-1-2-3s0-2 2-2l2 2zm432 0 1 7v7l4-3 4-2c2 0 1 3 0 6l-2 3h4c6 0 11 2 13 6l2 4c0 2-3 1-4 0l-3-3c-8-3-17 0-21 6-6 7-9 20-6 21 1 1 1-1 1-4 0-5 3-9 8-9s5 1 2 7c-4 6-5 6-5 1v-2c-2 1-3 22-2 28 2 12 12 23 21 26l3 2c0 2-7 1-14-1-14-6-24-23-24-43 0-10 2-16 8-28 4-9 7-21 7-28 0-3 1-4 3-1zm31 1c0 2-1 2-3 1-2 0-2-3-1-3 2-1 4-1 4 2zm7 1c0 2 0 2-3 2-2 0-3-1-3-3s0-2 3-2 3 0 3 3zm-461 3-3 3c-3 1-3 1-3-1 0-3 4-6 5-5l1 3zm447 1c0 2 0 3-2 2-3 0-4-3-3-6 1-2 5 1 5 4zm-441 5 1 5-7 1c-6 2-9 2-10 0l4-2 7-2 1-1c-2 1-2 1-1-1l1-5c0-3 0-3 2-2l2 7zm434-5v4l1 3 6 2c4 1 5 1 4 3-2 1-4 1-11-1l-5-1v-5c1-5 3-8 4-8l1 3zm-455 1-1 2-2-2 1-2 2 2zm7-1c0 1-2 3-4 3-2 1-2 0-1-2 0-2 5-3 5-1zm463 1c0 3-5 3-5 0-1-2 0-2 2-2l3 2zm4 0c-1 2-3 2-3 0l2-2 1 2zm-425 2v3c-1 2-2 2-4 0-2-1-2-2-1-3 1-2 3-3 5 0zm378 0c2 2-1 5-3 4-3-1-3-3-1-5 2-1 3-1 4 1zm-413 2c-1 1-7 4-8 3l3-3h5zm450 1c2 2 1 3-3 2l-3-3 3-1 3 2zm-459 0-1 2c-1 1-4-1-3-2 1-2 4-1 4 0zm466-1c0 2-1 4-3 4h-1l-1-2c0-2 0-2 2-2h3zm-400 3c1 2-2 4-3 2-1-1-1-3 1-3l2 1zm334 0c0 2-2 3-3 3-1-1-2-2-1-3 0-1 3-2 4 0zm-384 15c2 0 2 3 0 5s-6-2-3-5h3zm433 2c0 3-3 4-5 3-2-2-1-4 1-5s4 0 4 2zm-383 2c1 2-2 4-3 2-1-1-1-3 1-3l2 1zm334 0c0 2-2 3-3 3-1-1-2-2-1-3 0-1 3-2 4 0zm-334 17c1 2-2 4-3 2-1-1-1-3 1-3l2 1zm333 0v3c-1 1-4 0-3-3 0-1 3-2 4 0zm-373 16c0 1-3 5-5 5s-2-3-1-5 5-3 6 0zm415-1v5c-1 1-5-1-5-3 0-3 3-4 5-2zm-375 5c0 2-2 3-3 2-2-2-1-3 1-3l2 1zm333 1-1 2c-2 0-3-2-2-3 1-2 3-1 3 1zm-381 7c1 2-3 6-5 6-4 0-4-2-3-5 2-2 6-3 8-1zm433 1c2 2 1 5-1 5-3 0-6-2-6-5 0-2 1-2 2-2l4 2zm-495 2c2 2 1 5-2 5-2 0-5-3-5-5 0-3 4-3 7 0zm556 0c0 3-2 5-5 5s-3-2-1-5 7-3 6 0zm-526 0c2 1 3 3 1 4h-3c-4-1-4-4 0-5l2 1zm494 1c0 2-5 5-6 3-1-1 0-4 2-4 2-1 4-1 4 1zm-478 2v3c-2 3-8 1-7-3h7zm464 0v3c-4 3-9 1-7-2 1-2 5-3 7-1zm38 5 2 3c0 2-3 6-9 13-6 6-8 10-8 19l-1 8c-1 4-9 1-11-4-1-5 0-8 4-12 3-3 3-3 2-6 0-4-1-4 9-11l2-4-3 2-3 2-5 3c-4 2-4 2-8 1-3-2-3-2-7 0l-7 2c-3 0-6-3-6-6s0-3 3-2c6 3 17 0 33-7 8-4 10-4 13-1zm-532 1 13 6c6 2 16 3 19 1h2c2 2 1 4-1 6-3 3-7 3-12 0l-4-2-3 2c-3 2-4 2-5 0l-5-3-7-4-2-1c0 1 2 4 5 6 6 4 8 6 6 9-1 2-1 3 3 6 3 4 4 6 4 9 0 4-4 9-9 9-3 0-4-2-4-11s-2-12-10-21c-4-5-6-8-6-10 0-6 6-7 16-2zm428-1c1 2-2 4-3 2-1-1-1-4 1-4l2 2zm-354 2c0 2-1 3-3 3s-4-2-3-5l3-1c2 0 2 1 2 3zm19-2c0 2-1 3-3 2-2-2-1-3 1-3l2 1zm356 2c0 2-1 3-3 3s-4-2-3-5l3-1c2 0 3 1 3 3zm-382 7c5 2 8 10 4 15-2 3-3 2-5-1-4-8-15-3-18 6v3l2-1c5-3 7-2 3 2l-2 8c-2 7 0 15 4 25l4 8c-1 0-7-9-10-16-11-20-6-43 10-49h8zm390 0c5 1 12 7 15 13 3 7 3 19 0 28-2 6-10 21-13 23-2 2-1 1 2-6 6-12 8-26 3-34-3-4-2-5 2-3 3 2 3 2 3 0s-3-7-6-9c-4-3-12-2-12 2 0 3-2 4-4 2-4-3-1-15 3-16h7zm-477 7 2 3 2 5c3 5 3 11 0 15l-3 4h5c6 1 11 6 11 11l-1 6c-2 1-2 1-3-4-2-6-13-8-18-4l-3 2h5l5 2 1 2-4 2c-4 3-4 10 0 14 2 2 3 3 7 3h5l-2-3-3-3 6-2 7-2c3-2 7-7 8-11 2-8 3-9 2-3 0 4-1 9-3 13l-2 8c1 1 6-11 8-17l1-8v9l-3 14c-7 14-18 18-32 12-8-4-13-11-15-19-1-9 3-16 11-22 7-5 9-7 9-11s-1-5-3-3c-5 4-11 0-8-5l5-2c2 0 3-1 3-2l-1-3-2-2c-2-3 0-3 3 1zm560 0c-3 3-4 7-2 6 2-2 6 1 7 3 2 5-3 8-8 4-3-2-3-1-3 3 0 2 1 4 4 7l7 5 6 7c9 15-4 36-23 36-9 0-16-5-21-17-3-4-3-6-3-12v-7l2 7c1 6 7 17 8 17l-3-7-3-13v-7l1 5c3 10 8 15 16 16 6 0 7 2 4 6l-2 2h4c11 0 15-15 5-18-3-1-3-1-1-3l5-2 4-1c0-1-4-3-9-3-6 0-11 3-11 8 0 3-1 4-3 1-4-7 4-16 14-16h2l-2-3c-4-5-5-10-2-14l2-6c0-2 4-7 6-7 1 0 1 1-1 3zm-520 0c1 2 1 2-1 3l-4-1-1-2c0-2 5-1 6 0zm483 0c0 2-2 4-4 3-2 0-3-1-1-3 1-1 5-2 5 0zm-490 2c1 1 0 2-1 2-2 1-2 1-1-1 0-2 2-3 2-1zm494 1c0 1-1 2-2 1v-2c1-2 2-1 2 1zm-478 2c1 2 1 3-1 4-1 1-2 1-3-2v-4c2-2 3-1 4 2zm64-2c0 2-1 3-3 2-2-2-1-3 1-3l2 1zm335 1-2 1-2-1c0-2 0-2 2-2 1 0 2 0 2 2zm64 1c0 4-1 5-4 4v-4c2-4 5-3 4 0zm-470 2c1 2 0 4-2 4l-2-5c1-2 4-1 4 1zm477-1c1 1-1 5-2 5-2 0-3-1-2-4 0-2 2-3 4-1zm-483 3c0 3-3 2-6 0l-3-2h4c3 0 5 1 5 2zm46 0c0 1-3 3-4 1l-1-2c1-1 4-1 5 1zm397 0c1 2-2 2-3 0 0-2 0-2 2-2l2 2zm49 0c-2 2-7 3-7 2 0-3 2-4 5-4s3 0 1 2zm-477 4c-1 3-4 4-4 1 0-2 1-3 3-3l1 2zm42 8c-3 8-3 16-1 21 3 5 4 17 2 22-3 7-10 7-14 2-3-5 2-9 6-6l3 2v-3c0-4-2-9-7-16-8-11-7-18 0-23 5-4 9-4 5-1s-5 6-5 12v5l1-4c1-5 2-7 7-14l4-6c0-1 1-1 1 1 1 1 1 3-2 8zm417-9v3c-1 2-4 0-4-2s0-2 2-2l2 1zm-46 1 4 6c5 7 6 9 6 14 0 3 0 3 1 2 2-3 0-10-3-14s-3-5 1-3c7 4 10 12 6 18l-6 10c-6 9-7 19-1 13 1-1 2-1 4 1 3 2 3 4-1 7-2 2-7 3-9 1-5-3-5-17-1-27 3-5 2-13-1-19-2-4-3-10-1-10l1 1zm-427 1c1 2-1 4-2 2v-3l2 1zm7 0v3c-2 0-4-1-4-3 0-1 4-2 4 0zm473 1c-1 2-4 3-4 0l2-2c1 0 2 0 2 2zm6 0c-1 2-3 2-3 0l2-2 1 2zm-473 5-3 1 1-3c3-1 4 0 2 2zm460 0-1 1-2-2 1-1 2 2zm-471 0-2 1-2-1 2-1 2 1zm6 0c1 1 0 1-1 1l-3-1 2-1 2 1zm68 1c0 2-2 2-3 0 0-2 0-2 2-2l1 2zm335 0c0 1-3 3-4 1v-2c0-2 3-1 4 1zm68-1-2 1-2-1 2-1 2 1zm6 0-2 1-1-1 1-1 2 1zm-473 20c6 8 11 13 18 16 9 5 13 13 10 18-2 2-2 3 0 4l1 6c0 4-2 6-13 14-8 5-12 9-19 19-2 2-2 2-4 1l-2-8c0-7 2-11 8-14 5-2 16-4 16-3s-4 4-9 6l-5 4c-2 3 16-7 18-10 4-6-2-9-8-5-10 9-19 8-29-3l-7-6-4-3 4-2 8-7c10-10 19-11 28-3 6 5 13 2 8-4-2-3-19-13-18-10l6 4 7 4c1 2 1 2-2 2-6 0-14-3-17-6s-4-3-4-10c0-6 2-10 4-10l5 6zm467-2c5 11-2 19-18 22-7 1-6 0 2-5l8-6 1-3-3 3-9 6c-9 4-12 10-6 12l8-4c10-7 15-6 25 4a56 56 0 0 0 13 9l-3 3c-2 0-6 4-10 7l-9 7c-6 2-14 0-18-5-3-2-6-3-8-1-4 3 1 8 11 13l7 4 2 2-1-2-8-6c-8-4-9-6-2-5 15 2 22 10 19 20-2 7-3 7-6 3l-8-9c-3-4-8-8-12-10-11-7-14-12-11-18 2-2 2-2 0-5-3-7-1-10 10-18 9-5 15-11 19-18l5-4 2 4zm-403 2c0 2-2 2-3 0 0-2 0-2 2-2l1 2zm335 0c0 1-3 3-4 1l-1-2c1-1 4-1 5 1zm-335 18c0 2-2 2-3 0 0-2 0-2 2-2l1 2zm335 0c0 1-3 3-4 1l-1-2c1-1 4-1 5 1zm-334 18-2 2-2-2 2-1 2 1zm333 0-2 2c-2 0-3-1-1-2 1-2 3-1 3 0zm-429 8c4 2 10 9 13 15 2 5 3 11 2 15l-1 4v-5c-1-5-7-19-8-18l2 8c2 3 3 9 3 13l1 5-2-6c-4-10-9-15-17-15-5 0-6-1-3-5l2-3h-4c-6 0-10 4-10 10 0 5 2 7 6 8 2 1 2 1 0 3l-5 2h-5l3 2c4 4 16 2 17-3l1-4 1-2c2 0 3 3 3 6 0 6-5 10-11 11l-5 1 3 4c3 4 3 10 0 15l-2 5c0 1-4 6-6 6-1 0-1-1 1-3 3-3 4-6 2-6-5 1-9-4-7-7 1-2 5-3 8 0h3c2-4-1-10-7-13-13-8-16-19-9-32 7-11 20-16 31-11zm541 0c9 5 15 15 15 24 0 6-3 13-9 16-8 6-11 9-11 13s0 5 4 2c2-2 6-1 7 1 2 3-1 7-5 7s-4 2 0 6c2 2 2 3 1 3-2 0-6-5-6-7l-2-5c-3-5-2-8 0-13l3-5h-2c-4 0-11-4-12-6-2-3-3-7-1-10 1-3 3-3 3 1l3 5c2 3 4 3 8 3 5 0 9-2 9-3l-3-1-6-2-2-1 3-2c10-5 6-18-5-18h-4l2 2c3 4 2 6-3 6-9 0-15 6-17 19-1 1-1-1-1-5l3-13 3-7-3 3c-3 4-5 11-5 18l-1 3c-2-2 0-15 2-20 6-12 13-16 22-16l10 2zm-84 2c3 2 4 5 2 7h-7c-4-4-1 8 3 14 5 7 8 12 8 16 0 3-3 9-7 11-5 3-6 2-3-1 4-4 6-9 4-14 0-1 0-2-1-1l-1 5-5 10-4 7-1 1c-2 0-2-3 1-8 3-9 4-15 1-21-4-10-4-22 0-27 4-3 6-3 10 1zm-383 1c3 3 3 4 3 12-1 6-1 10-3 12-2 5-2 13 1 20 2 4 3 7 2 8-1 4-12-13-12-19v-3l-1 3c-2 3 1 9 5 13l2 3-2-1c-7-2-12-8-10-15l5-10c5-7 7-12 7-16 0-3 0-3-2-2-3 3-6 2-7-1-1-2-1-2 1-5 3-3 8-3 11 1zm21 8-1 2c-2 0-2-1-2-2 0-2 0-2 2-2l1 2zm335 0c0 1-3 3-4 1l-1-2c1-1 4-1 5 1zm-372 7c-6 11-7 25-3 33l2 4c0 2-2 1-5-1l-2-3v4c2 7 7 11 14 11 2 0 3-1 4-4 2-4 3-4 5-1s2 7 0 11c-4 9-18 4-24-8-6-10-5-23 1-36 3-7 10-17 11-17l-3 7zm410 4c5 8 8 17 8 26 0 10-2 16-8 22-10 10-21 8-21-4 0-4 2-8 4-7l2 3c0 2 3 4 6 4 5 0 12-7 12-11 0-2 0-2-3 0-4 2-5 1-2-4 5-7 4-21-3-34l-3-6c0-2 5 5 8 11zm-372 7-2 2-2-2c0-2 1-2 2-2l2 2zm334 0c0 1-3 3-4 1l-1-2c1-1 4-1 5 1zm-420 12c6 5 6 11 1 16-4 5-5 5-3 7 2 1-1 6-6 10-3 1-5 3-5 4 0 2 0 2 3 0 1-2 4-3 6-4l5-3c1-2 1-2 5 0l3 2 5-2c5-3 8-3 11 0 2 2 2 3 1 5 0 2-1 2-2 1l-9-1-18 5c-15 7-16 7-19 4-4-4-3-5 5-13 7-9 9-12 9-22l1-9h7zm508 1 1 7c0 10 1 13 9 21 8 9 9 11 7 14-3 5-5 4-20-2-11-5-12-6-21-6l-9-1c0-6 8-8 14-4 3 2 3 2 6 0l3-2 5 3c10 7 12 8 12 7l-2-2c-9-9-10-10-10-13 1-2 0-3-2-6-6-5-6-11-1-16 3-2 8-3 8 0zm-422 6-2 2c-2 0-3-1-2-3 2-1 3-1 4 1zm333-1c1 1 0 3-2 3-1 0-2-2-1-3h3zm-402 1-2 2c-2 0-3-1-1-2h3zm471 0-2 2-2-2 2-1 2 1zm-477 1-2 1-2-1 2-1 2 1zm11 0c2 2 1 3-1 2l-2-2h3zm460 0-2 2c-2 1-2 1-1-1s3-3 3-1zm12 0-1 1-2-1 2-1 1 1zm-485 4c1 1 0 3-2 3v-2c0-2 1-2 2-1zm7 0c1 1 0 3-2 3s-3-2-1-3h3zm473 1-2 2-2-2c0-3 3-2 4 0zm6 0-1 2-2-2c0-3 2-2 3 0zm-472 2c0 2 0 2-2 2l-2-1v-2c0-3 3-2 4 1zm459-2c1 2-2 4-3 4v-4c1-1 3-1 3 1zm-474 6c0 1-2 2-5 2h-4l3-2c3-2 6-3 6 0zm7 0c0 3-2 4-3 3-2 0-3-2-1-4s4-1 4 1zm39 0c0 1-3 3-4 1l-1-2c1-1 4-1 5 1zm398 0-2 2c-2 0-3-2-1-3 1-1 2 0 2 1zm39 0c1 2 0 3-1 3-2 2-3 1-4-2 0-3 0-3 2-3l3 2zm8 0c2 2 2 2-1 2h-4l-1-2c-1-3 4-2 6 0zm-477 1-3 6c-2 0-3-2-2-5 1-2 2-3 3-2l2 1zm463 2-1 3c-3 1-4 0-4-3-1-1 0-2 1-3 2-1 3 0 3 3zm-400 2c0 2-1 2-2 2l-2-1c0-3 3-4 4-1zm335 0c0 2-1 2-2 2l-2-1c0-3 3-4 4-1zm-415 0v2h-2c-2-3-1-4 2-2zm494 2h-2v-2c2-1 2-1 2 2zm-486 0c-1 2-4 3-5 3-3-1 0-5 3-4l2 1zm481 2h-3c-2-1-2-3 0-3 2-1 4 2 3 3zm-453 5c15 5 25 21 25 41 0 11-1 17-7 30-5 9-8 22-8 30v3l-2-3c-2-2-2-4-2-9v-6l-4 3-4 2c-2 0-1-3 0-6l2-3h-4c-8 0-14-4-14-10v-2l3 2c5 6 16 5 22-1 4-3 9-13 9-17l-1-7-1 4c1 4 1 4-2 7s-6 4-9 2c-2 0-2-1 1-6l5-5v6c2-1 3-20 2-26-1-13-11-25-22-28l-2-2c1-1 7-1 13 1zm431 0-3 2c-8 2-17 12-19 21-2 6-1 26 0 30l2 4-1-4 1-4 4 5c2 5 3 6 1 6-2 2-8 0-10-2l-1-7c0-2 0-4-1-3l-1 3c0 8 6 19 13 23 5 3 14 3 17-1 3-2 5-3 5-1l-2 4c-2 4-7 6-13 6-3 0-3 0-3 2 3 7 3 7-1 6l-4-3c-2-1-2 0-2 5s-1 10-3 10l-1-3c0-7-3-19-8-28-5-12-7-19-7-28 0-19 9-35 23-42l10-3c3 0 4 1 4 2zm-407 9c0 2 0 3-2 3s-4-2-3-5l3-1c2 0 2 1 2 3zm375 0c0 2 0 3-2 3l-3-1c-1-3 1-5 3-5s2 1 2 3zm-355 2-2 2c-2 0-2-3-1-4 2-1 3 0 3 2zm335-1c0 2-1 3-3 2-2 0-1-3 1-3l2 1zm-398 3v3c-2 2-6 1-7-1-1-4 5-5 7-2zm463 0c2 1 2 2 1 3-2 2-6 1-7-1-2-3 3-5 6-2zm-508 3c0 2-3 5-6 5l-2-2c0-4 6-7 8-3zm31 0c0 1-1 3-4 4-3 0-4-3-2-5 3-1 5-1 6 1zm491 0c3 2 1 4-3 3-3 0-4-2-2-3 2-2 2-2 5 0zm32-1 1 4c1 3-5 2-7-1v-3h6zm-494 4c1 2 1 4-3 4-2 0-6-4-5-6 2-2 6-1 8 2zm435-1c0 2-3 5-6 5-2 0-2 0-2-2 0-4 6-7 8-3zm-505 6-2 6c-2 4-3 6-2 19 0 12 0 15 2 23l5 14 3 5v-5c0-7 3-11 9-10 2 0 1 2-2 3-3 0-4 2-4 8 0 11 4 17 17 27l8 6 2-4 4-5c2 0 2 1 2 5l2 12c2 7 8 20 11 21l5-3c4-4 6-5 9-3 4 3 5 10 3 12-2 1-5 0-5-1h1c2 0 3-1 2-4 0-3-5-4-7-1-5 4-2 10 7 15l6 3 1-5 1-7c1-1 2 1 5 8 3 8 4 10 11 18l19 25c30 42 51 66 69 76 7 4 22 9 29 10h6l-8-3-10-5-9-14c0-2 6-1 11 1l5 1c0-2-6-7-10-9-5-3-7-3-14-3l-11 2c-4 2-4-1 0-3 2-1 2-1 0-1-2 1-3-1-1-2l1-1 4-3c8-5 21 1 29 12 2 3 2 2 2-5v-7l9 7c4 5 6 8 7 17l2 10c1 2 1 2 2-5 1-10 2-14 6-19 6-6 16-9 17-4 1 2-1 5-3 5l-1-2c1-3-1-3-7-1-3 2-5 3-6 6l-2 7c0 2 0 2 3 1 4-2 5-1 2 2-2 3-3 12-1 17 1 2 2 5 4 6 5 4 20 2 24-3 1-2 4-3 4-1s-8 10-13 12c-7 4-22 3-35 0-11-4-35-16-52-26-12-7-13-8-17-8-5 1-9 5-9 9s1 5 2 2h4l1 3c0 2 0 3-3 3-5 0-8-3-8-9 0-5 2-8 6-11 3-2 3-2 1-3h-4l-5 1c-3 0-5 1-11 7-8 9-8 10-7 25v13c-1 5-4 11-7 13l-2 3c4 0 7 3 8 6 0 4 3 8 5 8l2-1v-3c-2-2-3-4-1-7 2-2 2-3 1-3l-3 3-2 4v-3c2-10 2-10 5-9 2 0 2 0 0-1-1-2-1-2 2-2 3 1 3 1 1-1l-2-1h2l4 2 2-1 12 1c2 1 2 1 0 1-5 0-10 3-12 6l-2 9v6l4 1 4 1-3 2c-2 1-4 2-9 2-8 0-11-3-13-11l-2-6-11-1c-16-1-27-4-38-10-12-5-17-10-20-17l-4-6c-25-15-34-26-35-42 0-6 0-7 2-13 3-6 7-10 13-14 10-7 23-2 23 9 0 9-11 14-17 7l-3-4c0-3-2-2-3 2-4 8-1 18 6 25a170 170 0 0 0 23 15c-1 1-11-4-18-8-9-6-16-18-15-27 1-4 1-6 5-9 6-7 15-7 16-1 0 3-2 5-6 5-4 1-3 2 2 2 4 0 8-4 8-7s-3-8-6-9c-8-3-19 2-23 11-4 8-4 13 1 22 4 8 7 11 18 17 11 5 12 6 12 13l1 6 1-2c0-6 6-13 14-15l12-2c10 0 17-2 20-6l5-6 7-11c5-8 7-9 12-5l2 2h-2l-6 3h5l4-2h5l1 1 1 1 2-1h2v2l-7 1c-5 0-6 0-9 4-4 3-9 12-9 14l-8 19-14 8-13 7c0 2 6 6 10 7 4 0 4 0 4-4 1-4 4-9 5-9l-1 3-1 7c0 4 0 4 4 6 5 3 7 3 4-1l-1-1 5 1h3l-3-3c-4-3-3-4 3-2 2 1 4 2 5 1v-1l-8-7 5 2c7 2 8 1 4-2l-5-3c-1-2 0-2 4 0l6 1-4-4-3-3 4 1c5 1 5 1 2-3-4-6-4-6-2-5l5 1v-2c-2-1-2-2-1-2l3-5c1-4 3-6 5-9 5-5 11-8 13-8l3-1c1-2 1-6-1-7l-1 1c1 2 1 2-1 2-1-1-4 0-7 3l-12 7c-7 4-7 4-5 1l9-7 10-7c3-2 3-3 2-5-2-3-4-3-7-2-2 1-2 1-6-2l-7-3-7-3c-3-3-4-4-4-1s-5 6-8 6c-4 0-7-1-8-4-1-2-1-2 1-1l6 2c2 1 3 1 3-1 1-3 0-6-2-9-1-3-23-19-23-18l-4 5-4 4 1 4 12 14c13 11 14 14 12 23l-3 8v-4c1-13-1-18-11-23l-6-2 5 5c6 5 6 6 2 5h-3l4 3c4 3 4 4 0 3h-3l2 3c2 4 2 4 0 3-2 0-2 0-2 2 1 2 1 2-1 2-2-1-2 0-2 1 1 2 0 2-2 3-4 2-4 1-1-5 5-9 4-14-6-23-6-6-10-13-10-19 0-5 1-7 7-10l4-5c1-4 1-4-3-6-8-3-20-1-20 5 0 2 0 3 3 1h3c1 1 1 1-1 3-4 5-11 0-10-7 1-8 8-12 20-13l12 1h4c0-2-10-7-13-7-4 0-5-2 0-4 4-2 11 0 16 4 7 6 7 6 4-1l-2-7-2-2c-1-1-3-2-8-2-7 0-10-1-10-3 0-1 1-2 4-2 3 1 3 1 4-3 0-9-10-19-18-19h-4c0-1 2-4 5-5l2-2-4-1c-6-1-13-1-18 2-7 4-9 11-3 17 1 2 1 2-2 2-3-1-6-4-8-8-1-3-1-3-2-1-2 7 0 19 5 23 3 4 7 5 14 5s11-2 14-7c4-10-8-20-14-12-2 3-1 5 1 5 4-2 7 3 3 5s-7-1-7-5 2-7 6-9c11-6 21 7 15 19-3 7-14 13-23 13l-8-2-5-2 1 4v18c2 4 2 9 1 12l-6 5c-6 4-7 6-7 9s0 3-1 0 0-7 6-12c4-4 5-5 5-8 0-5 0-5-4-2-3 2-10 4-10 2l2-4c3-7 3-24-1-37l-2-16c1-7 4-14 8-18 3-3 10-6 16-7l4-2c0-2-3-5-6-6-2-1-3 0-5 2-4 5-11 5-11 0 0-2 2-4 7-5l3-2-5-3c-6-5-9-9-8-13 1-3 3-2 3 2 0 3 1 4 4 6l7 7c1 2 4 3 5 3 2 0 7 3 10 7 2 3 7 5 11 5l-9-10c-15-14-23-28-29-47-7-21-7-45 1-53 1-2 3-3 3-2zm571 2c4 6 5 14 5 26-2 28-12 52-33 73l-9 11c3 0 9-2 9-4 1-3 7-7 11-8l4-2 7-6c4-3 5-4 5-8s2-4 3 0c0 3-2 6-8 11l-5 3 3 1c4 1 7 4 7 6-1 5-12 3-12-2 0-2-5 0-8 3-2 3-3 4 0 4l7 2c12 3 19 13 19 26l-3 16c-2 9-2 12-2 21 1 9 1 12 3 15l1 4c-2 1-7-1-9-3-4-3-5-2-5 2 0 2 1 4 6 9 6 6 7 9 5 12-1 1-1 1-1-1 0-3-2-6-6-8-7-5-8-7-8-11l2-7v-9l-1-7 1-4 1-3-5 3c-13 6-31-2-33-16-1-12 11-20 19-13 3 3 4 4 4 8 0 3-1 4-2 5-2 1-7 0-7-2s3-4 5-3c1 0 2 0 2-2 0-5-8-7-13-3-3 3-3 11 0 14l5 4c5 2 14 1 18-1 7-3 10-13 8-25v-4l-2 4c-1 4-6 8-9 8-2 0-2 0 0-3 4-4 4-9 0-13-6-5-15-7-23-5l-3 1 3 2 4 4c1 2 1 2-2 1-10-1-22 13-20 21 1 2 2 2 5 2h3c0 3-3 4-10 4-5 0-7 0-8 2-2 2-6 14-5 14l4-3 8-5c5-1 10-1 12 2 1 1 2 1-6 3-2 1-6 2-7 4l-4 3 4-1c5-1 16-1 22 1s11 7 11 12c0 6-6 10-10 7-2-2-1-5 1-5l2 1c0 2 2 1 3 0 0-3-3-6-7-7-3-1-12 0-16 2-2 3 0 8 5 11 3 2 5 3 5 6 2 6-4 18-11 23-5 4-7 8-7 15 0 4 1 7 3 9 3 4 2 4-2 3l-3-3-1-1c-2 0-2 0-1-2s1-2-1-2c-3 1-4 0-2-1l2-3c1-2 1-2-2-1-4 0-4-1 1-4l3-3h-3c-3 1-3 1-2-1l5-5 4-4-4 2-9 5-4 4v10c1 9 0 11-2 4-2-6-1-13 1-17l10-11c8-6 13-13 13-16l-4-6-4-4-10 7c-13 9-15 12-15 18 0 5 1 5 7 2 5-2 5-1 1 2-4 4-11 2-13-3l-2-3-3 2c-1 2-4 3-5 3l-10 5c-3 2-3 2-6 1-3-2-5 0-6 3 0 2 1 3 7 7l16 13-19-11-6-3c-1 1-2 0-2-1s-2-1-3 1 2 6 4 6c6 0 19 13 19 19l2 3c1 0 1 1-1 2-1 2-1 2 1 2l4-1c3-1 3 0 0 3l-3 5 7-2-3 4-4 4 6-1c5-2 5-2 4 0l-5 3c-4 3-3 4 4 2 5-2 5-2 4 0l-4 3c-3 2-3 2-2 3l5-1c5-2 6-1 2 2-3 3-3 3-1 3l4-1c3-2 4 0 1 2-2 2-2 2 0 2l5-2 3-2v-13l3 10 2 2c3 0 10-3 12-5 1-2 1-2-2-4l-11-6c-14-6-14-7-19-19-8-21-12-25-20-25-6 0-8-1-8-3h5l3-1 6-3 5-2c2 0 8 6 10 11 3 6 11 16 14 17l15 2c16 1 22 5 26 15l2 4v-6l2-7 11-7c10-5 13-7 18-16 3-6 3-7 3-13 0-5-1-8-3-11-9-13-28-14-28-1 0 5 3 8 8 8h4l-4-2c-6-3-7-7-1-9 2-1 4-1 8 1 13 6 12 23-1 36-5 5-18 12-21 12s-2-2 1-3c4-1 19-11 23-16 6-7 7-15 3-22-1-3-3-3-3 0 0 2-6 6-10 6s-7-1-8-5c-3-5-2-9 2-13 7-7 16-5 26 4 5 6 8 13 8 21 1 5 0 7-4 14-5 10-12 18-25 25-7 4-8 5-9 9-6 14-29 25-59 28l-10 1-2 6c-3 8-6 10-14 10-5 1-7 0-9-1l-3-2 4-1c5-1 6-4 4-11-1-6-4-9-11-10-4-2-4-2-2-2l11-1 1 1 5-2h3l-3 1c-2 2-2 2 2 1 4 0 4 0 1 2l-2 1h3c3-1 3-1 3 2l1 7c0 4 0 4-1 0-1-3-3-5-5-4l2 4v6c-2 3-2 3 0 3 2 1 5-1 6-5 1-5 4-8 8-8 1 0 1-1-3-4l-5-7-1-18c1-18 0-19-9-27-4-3-6-5-8-5l-5-1h-5c-2 1-2 1-1 2 3 1 8 6 9 10 0 4-1 9-4 10h-8c-1-1 0-5 2-5 1-1 2 0 3 1h2c4-5-4-13-12-12l-14 8c-14 9-37 21-48 24-17 6-29 6-38 2-5-2-13-10-13-13l-22-2-24-1 28-1c25 0 28 0 27 2l-5 1h-3l3 3c6 6 19 7 24 3 5-5 6-18 2-23-2-2-2-2-1-3l4 1c2 1 2 1 2-2 0-4-3-9-7-12-5-3-11-2-8 2v1c-2 0-4-3-3-5 1-4 8-3 14 2 5 4 7 9 8 20 0 9 0 9 2 7l3-11 2-12 13-12 1 7-1 7 3-4c6-7 15-12 22-12 4 0 12 4 10 5-1 1 0 1 1 2 2 0 2 0 0 1h-3l2 1 3 3h-2c-4-2-18-3-23-1-4 2-11 7-12 10-1 2-1 2 4 0l9-2h3l-3 5c-4 7-8 11-17 15l-8 3 5-1c13-1 26-6 37-14 10-7 24-21 34-33a1243 1243 0 0 1 32-43l17-22c5-5 6-7 9-15l4-10c1-1 2 3 2 8l1 5c2 0 11-6 13-8s3-7 1-10c-1-2-5-3-7 0-3 2-2 5 1 4 2 0 2 0 1 2-3 3-6 0-6-5 0-3 5-8 8-8l6 4 4 3c2 0 7-9 10-15l3-15c0-5 1-8 2-8s5 5 5 7c0 3 4 0 15-9l9-10c4-10 3-19-2-20l-3-2c0-1 3-2 6 0 3 1 4 3 4 10l1 4 1-4c9-19 12-42 7-56-2-5-2-7-1-7l2 2zm-546 2-4 2c-7 3-9 6-9 12 0 5 0 5 3 5 6 0 11 8 6 10-3 2-5 1-8-3-3-3-3-3-4-1-1 3 1 6 4 8 5 1 9 1 13-3 3-2 3-3 3-9 0-11 5-18 14-21 5-1 13-1 17 1 10 6 14 21 7 29-2 3-3 3-7 2-8-1-12-8-6-9 3 0 3 0 3 2-1 3 1 4 4 4 4 0 7-5 7-10 0-6-2-8-4-4-1 3-3 4-3 1 0-5-9-10-16-8-6 1-9 5-10 10l1 4 1-3c0-4 9-8 12-5 1 1 0 3-4 7-4 5-5 8-3 15 2 5 7 12 10 12l3 2c1 1 1 1-2 1l-9-2c-5-2-7-2-9-1-4 1-4 2 0 4 3 1 4 3 3 7-1 3-4 3-7 0-3-4-4-4-6 0s-1 10 1 14c3 4 3 5-1 2-5-5-5-16 1-21l3-4c0-2 4-7 6-7l-1-5-3-4c-7 3-12 4-16 3-7-2-11-10-7-15 2-1 2-3 2-4-2-7 3-16 9-18h6zm94 1c0 2-1 2-2 2l-2-1c0-3 3-4 4-1zm333 0-1 2c-2 0-3-2-3-3 1-1 3-1 4 1zm72-1c5 1 11 6 13 11l1 9c0 7 2 10 8 13 5 2 12-1 12-6 0-4-1-4-3-1s-6 5-9 3c-5-2 0-10 6-10 4 0 5-4 2-10-1-4-2-5-7-7-6-2-6-4 0-2s11 9 11 16l1 7c3 5 2 9-2 12s-12 3-17 0l-4-2-2 4-3 5 4 2 3 6 4 5c6 6 6 13 0 19-4 5-4 4-1-2 4-5 4-9 0-14l-2-2-2 2c-4 4-8 4-8-2 0-2 3-5 5-5s2 0 1-1c-2-3-6-3-12-1-11 3-14 2-6-2 5-2 8-7 9-13 0-7 0-9-5-13-4-4-4-7 0-8 4 0 7 1 9 5l2 3v-3l-3-6c-6-8-21-5-23 4 0 2-1 3-2 2l-2-4c0-2 0-2-2-1-2 3-1 9 1 12s4 5 8 4c1-1 2-1 1-3 0-2 2-4 4-3 5 1 1 7-6 9-4 1-4 1-7-1-5-3-6-14-3-21 5-8 16-13 26-10zm-447 3c1 1 2 3 1 4-1 2-4 1-5-1-2-4 1-7 4-3zm418 1c0 2-2 4-5 4-2-1-1-5 1-6s3-1 4 2zm-377 17-1 2c-2 0-2-1-2-2s0-2 2-2l1 2zm335 0c0 2-3 3-4 1v-2c0-1 3-1 4 1zm-335 17-1 2c-2 0-2-1-2-2s0-2 2-2l1 2zm335 0c0 1-3 3-4 1l-1-2c1-1 4-1 5 1zm-382 3c0 2-3 4-5 2s-1-4 1-5 4 0 4 2zm430-2c2 1 2 2 1 3-2 3-5 2-6 0 0-2 1-5 3-5l2 2zm-437 16 5 1v5l-2 7c-1 1-2 1-2-2l-2-5c0-2 0-2 2-1l-1-1-7-3c-4 0-5-1-3-2 1-1 4-1 10 1zm450-1c2 1 1 1-6 3l-4 3-1 2v4l-1 3c-1 0-3-3-4-8v-5l5-1c5-2 9-2 11-1zm-396 3-1 2c-2 0-2-1-2-2s0-2 2-2l1 2zm335 0c0 1-3 3-4 1l-1-2c1-1 4-1 5 1zm-400 2-2 2c-2 0-3-1-2-3 2-1 3-1 4 1zm5-1c5 2 5 4 1 4-3-1-5-2-5-4h4zm455 1-3 2-2 1-2-1 3-3c5-1 5-1 4 1zm5-1c1 2 0 3-2 3s-3-2-1-3h3zm-420 4c-1 3-4 4-6 2-1-2-1-2 1-4s2-2 4-1l1 3zm378-1c0 2-3 4-4 3-3 0-3-3-1-4 1-2 5-1 5 1zm-428 3-2 2v-3c2-1 2-1 2 1zm6 0c2 3 1 4-1 3-3 0-4-2-4-4l5 1zm22 5c-5 11-6 25-2 32 1 3 3 4 7 4s3 2-1 4-2 4 4 4c7 0 10-7 6-12-2-3-3-3-6-3-4 1-5-1-2-5 1-2 3-3 6-3s4 0 6 3c6 6 3 20-4 22l-3 2 4 3c7 4 10 12 6 17-3 4-4 4-4 0 0-6-2-9-12-17-13-10-17-18-17-30 0-6 1-13 4-20 1-3 3-4 6-6l4-1-2 6zm424 3c3 8 4 21 2 28-3 8-7 13-16 20-9 8-12 11-12 16s-2 5-4 0c-2-3-2-4-2-7 1-3 9-11 12-11l-2-2c-7-4-10-14-7-21 2-3 5-5 9-5 6 0 10 8 3 9-5 0-5 0-7 4-1 4 0 7 3 9h10c2-1 1-1-2-3-4-1-4-4 0-4 8 0 11-12 7-28l-4-10c-2-4-1-5 3-3s5 3 7 8zm18-6-3 1c-2 0-3 0-2-2l2-2c3 0 3 0 3 3zm-458-2 3 3-1 3c-1 1-5-2-5-5 0-2 0-2 3-1zm450 2c0 2-1 3-3 4s-3 1-2-3c0-2 1-3 4-4l1 3zm12-1-1 1-2-2c0-1 2-1 3 1zm-473 6c0 2 0 2-3 2-2 0-3-1-3-3s0-2 3-2c2 0 3 1 3 3zm475 0c0 2-1 2-3 2s-3 0-3-2 1-3 4-3c1 0 2 1 2 3zm-469 0c0 1-2 3-3 2l-1-2c0-2 3-3 4 0zm462-1c0 2-1 4-3 3-2 0-3-2-1-3h4zm-399 6-1 2c-2 0-3-2-1-3 1-1 2 0 2 1zm335 0c0 1-3 3-4 1l-1-2c1-1 4-1 5 1zm-357 3c1 2 1 2-1 4-2 1-3 1-4-1v-4c3-1 4-1 5 1zm381 1c0 2-3 4-4 3-2 0-3-5-1-5 2-1 5 1 5 2zm-422 6c0 3-3 5-5 3s0-5 3-5c2 0 2 1 2 2zm463 0c0 2-2 4-4 3-1 0-2-1-2-3 0-1 0-2 2-2l4 2zm-399 8c0 2-1 2-2 2l-2-1c0-3 3-4 4-1zm333 1-3 1v-2c1-2 2-2 3-1v2zm-394 13c0 1-2 3-3 2-2-1-1-4 1-4l2 2zm456 0-1 2c-1 2-4 0-3-2s3-2 4 0zm-395 4-1 3c-2 0-3-1-3-3h4zm333 1c0 3-3 2-4 0 0-1 0-2 2-2l2 2zm-424 10c1 3 0 4-3 4s-4-3-1-5c2-1 4-1 4 1zm516 0c2 2 0 4-2 4-3 0-5-3-3-5 2-1 3-1 5 1zm-425 9-2 1c-2 0-3-3-1-3 2-1 4 1 3 2zm333-1c0 2-1 2-2 2l-2-1c0-3 3-4 4-1zm-333 18c0 2-1 2-2 2l-2-1c0-3 3-4 4-1zm333 1-3 1v-2c1-2 2-2 3-1v2zm-334 18-1 2c-2 0-3-2-1-3 1-1 2 0 2 1zm335 0c0 1-3 3-4 1l-1-2c1-1 4-1 5 1zm-434 2c0 2 0 3-2 3-3 0-4-4-2-5 2-2 4-1 4 2zm534-1c1 2 0 4-3 4-2 0-4-2-3-4 1-3 5-2 6 0zm-285 35c0 2-1 2-2 2l-2-1c0-3 3-4 4-1zm35 1-3 1v-2c1-2 2-2 3-1v2zm-164 0-1 2c-2 0-3-2-1-3 1-1 2 0 2 1zm19 0c0 2 0 2-2 2l-2-1v-1l2-2 2 2zm17 0-1 2c-2 0-3-2-1-3 1-1 2 0 2 1zm20-1c0 2-2 3-4 3v-2c1-2 3-2 4-1zm17 0c0 2-2 3-4 3v-2c1-2 3-2 4-1zm19 1c0 2-1 2-2 2l-2-1c0-3 3-4 4-1zm19 0c0 1-3 3-4 1l-1-2c1-1 4-1 5 1zm35 0c0 2-2 3-3 1l2-3 1 2zm36 0c0 2-2 2-3 0 0-2 0-2 2-2l1 2zm19 0c0 2-1 2-2 2l-2-1c0-3 3-4 4-1zm20 1-2 1c-2 0-3-1-2-3 1-1 4 0 4 2zm17-1c0 2-1 2-2 2l-2-1c0-3 3-4 4-1zm19 0c0 1-3 3-4 1l-1-2c1-1 4-1 5 1zm17 0c0 2 0 2-2 2l-2-1v-1l2-2 2 2zm19 0c0 1-3 3-4 1l-1-2c1-1 4-1 5 1zm-7 6-1 2c-1 2-15 2-140 2l-141-1c-4-4-8-4 140-4l142 1zm-121 8c0 4-2 4-20 4-17 0-21-1-21-3s3-2 20-2l21 1zm-76 6c2 2 1 4-1 5s-3 1-4-1c-1-1-1-2 1-3 2-2 2-2 4-1zm63 0c1 1-2 1-7 1l-8-1 7-1 8 1zm52 0c2 1 3 3 1 5-3 2-7-2-5-5h4zm-293 4c3 2 4 3 4 7 0 3 0 4-3 6-3 3-9 3-15-1l-2-2 8 2h7c5-4 3-10-3-11-4 0-4 0-4 2l1 2c3 1 2 3 0 3s-3-2-4-3c-1-3-1-3 1-5 2-3 6-3 10 0zm477-1 2 3c0 2-3 6-5 6s-3-1-1-2c3-1 2-5 0-5-7 0-10 7-5 11 3 2 9 1 14-2h2c-2 3-8 5-12 5-9 0-13-11-4-15 3-2 6-2 9-1zm-258 7-3 7c0 2-2 2-3 0-2-5 3-13 7-13 1 0 1 1-1 6zm9-6-2 5-2 6c0 3-4 4-5 2-2-4 4-13 8-13h1zm5 8c-1 4-3 7-6 6-2-1-1-8 3-12 1-2 1-2 2 0l1 6zm6-4c2 4 2 9 0 10s-4-3-4-9 1-6 4-1zm6 0c4 4 5 8 2 9-2 1-3 1-3-1l-3-7c-3-6-1-7 4-1zm4-3c2 0 6 7 6 9l-1 4c-2 1-2 1-3-4l-4-7c-2-3-1-4 2-2zm-40 10c1 2 1 6-1 7-1 1-3 1-3-1 0-3-2-3-5-1-5 5-1 13 6 13 5 0 10-5 12-11 1-3 3-1 3 2s-5 8-9 10c-11 4-21-3-18-13 2-5 11-9 15-6zm61 2c3 2 3 4 3 7 0 6-2 9-7 11-7 3-18-3-20-11 0-4 2-5 3-1l5 6c3 3 4 4 7 4 6 0 9-4 9-8-1-4-4-7-6-7l-2 3c-1 3-4 2-5-2-1-5 7-7 13-2zm-44 7c0 4-2 7-4 7s-2 0-1-5c3-7 5-8 5-2zm6 1c0 4-1 7-4 7l-1-5 2-6c1-2 2 0 3 4zm8 1c1 4 0 5-1 6-3 1-6-8-3-11 2-1 3 0 4 5zm5-2 2 5c0 2 0 2-2 2s-3-1-3-4l-1-5c1-3 4-1 4 2zm-289 1c4 5 3 24-2 33-3 5-3 3-1-4l3-15c0-8 0-9-2-11s-5-3-8 0c-1 1-1 1 0 0 2 0 5 2 5 4s-3 4-6 4c-2 0-5-3-5-6 0-4 7-9 11-8 2 0 3 1 5 3zm260-1c0 2-4 6-6 5l1-2s2-1 2-3c2-4 3-4 3 0zm37-1 2 3 2 3c-1 1-6-4-6-6l1-2 1 2zm268-1c6 3 8 8 4 12-3 4-9 2-8-3 0-2 1-2 3-2 3 0 3-2 0-2-3-1-7 1-8 4-2 4-1 14 2 22 2 7 3 9 0 7-2-3-5-15-5-23s2-14 5-15h7zm-300 24c0 4-2 10-11 32-3 7-3 10-3 16 0 8 0 8-2 7-3-1-4-5-4-11 0-4 1-6 3-10l4-7 1-3 2-1-2-2-1 2-2 1-2 4-1 5c-1 5-28 7-27 2l-3-3c-6-3-8-8-4-8 3 0 7 3 7 6 0 2 3 5 5 5v-2c0-1 1-2 5-3 13-3 27-17 32-32 1-3 2-4 3-3v5zm28-3a52 52 0 0 0 35 34c2 0 3 1 2 3v1c2 0 5-3 5-4 0-3 4-7 7-7 5 0 1 6-5 9l-2 2c1 4-17 4-24 0-3-1-4-2-4-6 0-3-1-4-2-4-2 0-2 5 1 8 3 4 4 7 4 12s-2 11-5 10l-1-8c0-7 0-9-5-22-7-16-9-23-9-28 0-4 2-4 3 0zm-121 2 10 7-5-2c-7-5-12-6-23-6-7 0-13 0-20 2-10 2-17 3-19 1-1-1 0-2 5-2l17-2 19-2c7 0 8 0 16 4zm109 1-2 7c-1 1-2 1-3-1-2-2-3-9-1-10l3-1c3 0 3 0 3 5zm134-4 15 3 8 1c3-1 4 0 1 1-3 2-9 1-22-2-20-4-29-2-40 5l-3 1 14-8c4-2 13-2 27-1zm-393 2 2 4c0 2 0 2-2 1h-5c-3 0-3 1-3 3 0 3 0 3 3 3l6 2c1 2 4 3 6 4 5 3 7 7 7 13-1 5-1 7-4 10-4 4-9 5-14 3-5-3-7-10-3-14 3-3 4-4 6-1 3 2 2 6 0 6l-3-1c0-3-2-1-2 1 0 5 6 8 12 6 4-2 6-8 4-13-2-4-4-5-6-3-1 1-2 0-4-3-4-6-7-7-14-4l-7 2 4-3c3-3 3-4 3-9 0-4 0-5 2-7 3-3 9-3 12 0zm523 0c2 1 3 6 2 10-1 3-1 3 3 5 4 3 4 5 0 2-4-2-12-2-15 0l-3 5c-2 3-2 3-3 2-2-2-2-2-4 0-3 4-3 11 0 14 4 3 6 3 10 2 4-2 4-2 4-5 0-4-1-5-2-2-2 2-5 1-5-2 0-2 3-5 5-5 1 0 5 4 5 7 2 5-4 11-10 11-3 0-9-3-11-7-4-7-1-18 5-20l6-3 6-3c5 0 5-5 0-7l-5 1c-2 1-2 1-2-1 0-5 9-8 14-4zm-385 7 2-1h5l3 1h3l4 2 5 2 3 1c2 1 2 1 1 3-2 1-2 1 1 3l6 4c5 1 6 1 4 2-3 2-8 0-14-5-9-7-11-8-16-8-8 0-17 2-27 6-7 3-9 3-14 3-6-1-8-2-8-5l3-1 4-1v-1l-1-1h5c3 0 4 0 3-1l-1-1 6-1h5c-1-2-1-2 4-1 5 0 6 0 5-1 0-1 3-1 9 1zm228-1 2 1 4-1 2 1 6-2c3 0 3 0 2 1s0 1 5 1c6-1 6-1 4 1h5c7 0 7 0 5 2-1 1-1 1 2 1h6v1l-1 1 3 1c3 0 4 0 4 2 0 5-13 5-23 0-11-5-27-7-33-3l-8 5-7 5h-8l2-1c3 0 11-5 11-6l-1-1c-2 0-1-3 2-4l6-2 10-4v1zm-193 8c3 0 3 2-1 2h-3l3 2 2 2c-1 2-7-1-7-4-1-2 0-4 2-4l4 2zm172 2c0 2-1 2-4 4-4 2-6 0-2-2s4-3 1-2c-4 0-5-2-1-3h3c2-1 3 0 3 3zm-87 0c0 3-2 4-4 3v-5c2-1 3-1 4 2zm-56 2c5 6 4 11-2 9-3-1-7-6-7-8s2-4 4-4l5 3zm-13 1c1 1 1 4-2 5-1 0-5-3-5-5 0-3 5-3 7 0zm129 0c0 2-4 8-7 8l-2 2c-1 2-2 2-3 2l1-2c2-1 2-1 0-2-3-3 3-11 8-11 2 0 3 1 3 3zm11-2v4c-2 4-4 4-7 2-2-2-1-5 2-6h5zm-356 3c2 2 3 3 6 2s8 0 8 1l-3 2c-7 3-10 10-7 19 2 5 2 7 0 6-2-2-5-9-6-15l-2-12c-2-6-2-6 0-6l4 3zm571-2-2 7-2 10c0 5-3 12-6 14-2 1-2 1-1-3 4-9 2-18-5-21-3-1-4-2-3-3h8c2 1 3 0 5-2 2-3 6-4 6-2zm-398 6 9 5c5 3 8 8 9 16l1 4-5-6c-4-4-6-5-8-5l-6 2-3 2c-2 0-1-3 1-5 2-3 1-4-4-3-4 1-7 4-7 6s0 2-2 0-2-2-1-5l4-5c3-2 3-3-1-3-3 0-3-2 1-3 4-2 7-2 12 0zm233 1c3 2 2 3 0 2h-4c-1 1-1 1 2 3 4 2 5 5 5 9-1 3-4 4-4 1s-4-6-8-6c-5-1-6-1-3 2 2 3 3 6 1 6l-3-2c-3-4-10-2-15 5l-4 3c-1-1 4-13 6-16 8-8 22-12 27-7zm-118 8c0 2 0 3-3 5-2 3-3 3-4 1l-3-2c-2-1 0-9 3-11 1-2 1-2 4 0l3 6zm-236-4c-3 4-2 4 3 0 3-2 5-2 7-1 9 3-3 25-17 32-7 3-16 4-27 1-10-2-15-3-20-1l-3 1c0-2 6-8 9-9 4-1 4-1 14 4v-2c-2-2-3-7-1-8l6 2c7 4 13 4 21 0 7-3 11-7 13-12 3-5 2-5-2-3s-8 3-8 1 6-9 7-9l-2 4zm159-3 3 3c1 1 0 2-2 2-3 0-6-2-6-4s3-3 5-1zm149 0c0 2-4 5-7 5h-3l3-3c2-3 7-4 7-2zm158 8c-1 2-5 1-8-1l-3-2v2c0 4 4 9 9 13 9 6 22 6 29 1 3-2 3-2 4 0s0 4-2 7c-1 1 0 2 6 2l10 1c4 1 5 1 2-1-2-2-5-2-9-2h-6l3-1c5-2 9-1 14 3 4 4 4 6 1 5-7-2-10-2-20 0-14 3-22 2-29-2-9-4-17-15-19-25-1-6 4-9 10-5 5 3 6 4 4 1-4-4-3-5 1-1l3 5zm-372-3-3 4-3 3-1-2c-3-4-2-6 0-6s3 0 3 2l1 3v-3l1-3c1-1 2 0 2 1zm87 0-3-2h1l2 2zm189 0 1 3 1-3c0-2 2-3 4-1 1 1 1 1-1 4-2 4-2 4-4 2-3-2-4-5-3-7s2-1 2 2zm-344 2 4 3-5 16-2 4 2-3c3-2 7-11 7-15 0-3 1-3 6-2 5 0 6 2 4 6-2 3-3 3-4-1l-1-3-2 5c-2 9-7 15-14 18l-4 3c-1 2-1 2-1-1 1-6 6-17 9-21 5-5 3-9-2-3l-3 2-1-5c0-4 0-4 2-4l5 1zm416 2c0 5-1 6-4 3-6-4-7-1-2 4 2 1 4 5 5 9l4 9v5l-1-1c-1-1-2-3-4-3-8-4-14-12-14-19 0-5-1-5-3-1-1 4-3 3-4 0-2-4-1-5 5-6h5v4c1 5 5 13 8 15 2 2 2 2 0-2-3-5-6-16-5-17 0-1 5-3 8-3 1 0 2 1 2 3zm-357 2 3 4-2 2-5 2c-2 0-3-1-3-4s1-8 3-8l4 4zm77-3 1 1 6 2-3 1-6-1c-2-2-1-4 1-4 1 0 2 0 1 1zm140 0c2 1-2 4-6 4s-4 0-3-1c2-1 3-2 4-1l2-1c0-2 2-3 3-1zm80 1 1 6-3 4-5-2-2-2 3-4c4-5 5-5 6-2zm-232 2-1 1-2 3c-1 2-1 2 4 1l7 1c3 2 2 4 0 4-10 0-9 12 1 15l3 1-2-2c-3-3-4-7-1-9 1-1 1-1 3 1 6 8 18 6 27-3l6-6v3c0 4-10 15-16 17-6 3-15 4-21 1l-16-1c-11-1-12-1-11-2 2-3 6-4 11-4l5 1-2-4c-3-4-3-14 0-17 1-2 5-3 5-1zm166 1c3 2 3 12 1 17l-2 4 6-1 8 2 2 3h-11l-17 2c-9 3-15 2-21-1-7-3-16-14-16-18 0-3 0-2 4 2 8 10 24 13 29 5 2-4 5-2 5 4l-2 4c-4 2-3 2 1 1 4-2 7-5 7-9 0-3-3-6-7-6-2 0-3-2 0-4l7-1c5 1 6 0 3-3l-2-2c0-2 4-1 6 1zm-88 3c3 3 3 7-2 10-7 5-16 3-16-3s2-7 5-3l4 3c3 0 3 0 2-3-2-5 3-8 7-4zm12-1 1 3-1 4c-1 1-1 1 1 1s4-1 5-3c2-2 3-3 4-2 2 3 2 6 0 8-2 3-3 3-7 3-5-1-12-4-12-6l1-1c1 1 5-2 5-3h-3l-3 2c-1 0 0-3 2-5 3-2 5-3 7-1zm-62 3c-1 2-6 5-9 5l-3-2c-2-2 1-4 7-4h5v1zm111-1 5 1c2 2 2 2 1 3-2 3-7 2-11-2l-1-2h6zm-184 4c1 1 8 3 15 3 20 3 24 5 11 6-10 1-20 4-24 7l-3 2-1-2-1-2-6 3c-8 3-13 4-21 3-7-1-17-6-15-7l3-1 12-3 17-4c6 0 7 0 7-3 1-3 2-4 6-2zm257 2c0 3 0 3 7 3l18 4c17 5 16 4 11 7l-11 4h-13l-10-4c-4-2-4-2-6 0-1 1-1 1-6-1-6-4-16-6-24-6h-7l4-2 16-4 15-3c5-1 5-1 6 2zm-132 5-1 2-1-2c1-2 2-1 2 0zm4 0-2 2-1-2 1-1 2 1zm-10 2c0 1-2 2-3 1l1-1h2zm16 1-1 1-1-1 1-1 1 1zm-13 4-1 1v-4c1-1 2 2 1 3zm9-2-1 3v-4c1-1 1-1 1 1zm-190 2c0 2 0 3-2 3s-4-2-3-5l3-1c2 0 2 1 2 3zm374-2v3c-3 4-7 1-6-3l3-1 3 1zm-410 2c0 4-3 5-5 3s-1-5 2-5c2 0 3 0 3 2zm447-1v3l-3 2c-1 0-3-3-3-5h6zm-261 2c2 2 0 5-3 5s-4-2-2-5h5zm23 2c0 3-2 4-5 3-2 0-1-4 1-5s4 0 4 2zm29 0c1 1-2 4-3 4-3-1-4-4-2-6 1-1 4 0 5 2zm22-2c2 2 0 5-2 5s-4-2-3-5h5z"/><path d="m227 91 15 3 22 4h10l-8-1a347 347 0 0 1-37-7c-2 0-3 0-2 1zM508 93l-19 4-6 1h7c6 0 13-1 33-6 7-2 8-2 3-2l-18 3zM94 93c0 3 12 4 15 2 2-1 1-2-2-1l-9-1h-4zM133 94l10 5c3 3 3 1 0-2s-6-4-10-4h-3l3 1zM615 95l-4 4c-1 2-1 2 2-1l8-3 5-2h-4l-7 2zM317 120v1l1-1 1-2-2 2zM436 118l2 2c1 1 1 1 0 0 0-2-2-3-2-2zM401 125c-1 1 1 2 2 1l-1-2-1 1zM398 131h1l1-1h-1l-1 1zM396 136l1 1v-1l-1-1-1 1zM373 104l-2 3 3-2c3-3 2-4-1-1zM381 105c3 2 3 2 2 0l-2-2c-2 0-2 0 0 2zM146 143c-7 3-8 4-8 6 0 5 3 10 7 12 5 3 14 4 24 4h9l4 5 9 10c4 6 6 7 6 5l-5-9c-3-4-4-7-3-7 1-1 0-1-1-1-3-1-4-3-1-4 1-1 1-1-2-2-4-1-5-1-1-3 2-1 2-1-2-1-5 0-7-1-4-3 1-1 1-1-2-1-4 0-5-1-3-2 1-1-1-1-4-1-6 0-7-1-4-3h-13l3-2c5-2 2-3-4-1-6 3-7 2-2-2l5-4-8 4zM314 144c-7 1-18 6-19 8l12-4 18-5h6l-4 2c-5 2-12 9-15 14-5 8-3 9 2 2 6-9 13-15 19-17l5-2h-8l-16 2z"/><path d="M300 162c-5 3-12 9-11 11l18-13c2-2 0-1-7 2zM269 163l-2 2c1 1 7-2 7-3 0-2-3-1-5 1zM259 168l-1 3c1 1 6-2 6-3h-5zM309 177l-6 9c-1 2-1 2 1 1l6-6h1l1-2 1-1v-5c-1-2-1-1-4 4zM253 174c-3 2-2 3 1 2l2-3c0-2-1-1-3 1zM244 181l-2 2 3-1 3-3c0-2-2-1-4 2zM229 182l3 3c2 2 2 2 2 0l-1-3h-4zM270 190h3c1-1 0-1-1-1-2 0-3 0-2 1zM228 200c-13 7-15 9-10 8 3-1 3-1-2 3l-5 4 5-2h3l-5 3c-6 3-8 7-2 4l2-1-2 2a642 642 0 0 1-5 5c4-2 4-1-1 4-2 2-4 4-2 3l-3 5c-5 7-9 9-13 11-5 1-6 1-6-2 0-2 3-3 3-1h2v-3c-2-4-8-2-10 2-4 8 0 13 8 13 3 0 5-1 9-4l7-9c4-7 19-26 30-39l10-12-13 6zM199 207l-14 12c-12 11-18 15-28 20-8 4-8 5 1 2 8-3 16-8 28-20a1803 1803 0 0 1 13-14zM119 208c-2 2-1 3 2 3s6-2 4-3h-6zM150 210c-6 3-8 5-8 9 0 2 1 3 5 6 2 2 5 5 5 7 2 3 3 3 3-1l-2-5c-4-3-4-9 0-14l2-4-5 2zM175 223c-2 2-2 2 0 1l3-2c2-2-1-1-3 1z"/><path d="M166 229c-2 1-2 2-1 2 2 0 5-2 5-3 0-2-3-1-4 1zM157 231l-1 3c0 2 0 2 2 2l1-3c0-3-2-5-2-2zM93 296c0 1 1 3 3 3s2-2 1-3c-2-2-3-2-4 0zM100 304l2 1 2-1-2-2-2 2zM110 306l1 2 1-2c0-1-1-2-2 0zM94 318c0 2 2 3 5 3 2 0 2-1 1-3-2-2-6-1-6 0zM606 143l4 4-6-2c-6-1-9-1-5 1s2 3-3 2l-5-1c-2 0-2 0 0 2l3 2h-7c-6 0-6 0-4 1 1 2 1 2-2 2-4 0-4 0-3 1 1 2 1 3-5 3-3 1-3 1-1 1 2 1 3 3 0 3l-4 1 1 2 2 1-2 1-2 2-3 5-6 11 1 1c1 0 4-3 6-7l9-11c4-3 5-3 15-3 6 0 18-2 21-4 4-2 7-7 7-11s0-4-7-7c-8-4-10-4-4 0zM423 145c6 3 15 11 20 18 4 7 5 6 2-1-3-6-9-12-15-16l-4-3h5l17 5 13 4c1-1-13-7-20-8l-15-2h-9l6 3z"/><path d="m448 160 18 13c2 0-3-6-6-9-4-3-15-7-12-4zM481 162l6 3-1-2c-2-2-5-3-5-1zM492 168c0 1 3 3 5 3v-2c-2-2-5-3-5-1zM442 172l-1 4 1 1c1-1 2 0 1 2 0 2 0 2 1 1l2 2 3 3c4 2 5 2 3 0l-5-7c-3-6-5-8-5-6zM500 173c-1 1 1 2 3 3s2 1 1-1c-2-3-4-4-4-2zM508 180v1l2 1c2 0 2 0 1-1 0-2-3-3-3-2zM523 182c-2 1-3 5-1 5l4-5h-3zM482 190h4c1-1 0-1-2-1s-3 0-2 1zM550 191c-4 1-5 3 0 3 2 0 6-3 5-3h-5zM524 205c9 11 22 27 30 40 5 7 9 11 12 12h11c5-4 3-16-4-16-3 0-6 2-6 4s2 2 4 1c2-2 4 1 2 3-3 2-10-1-16-8-6-6-7-9-5-7 1 0 0-2-3-4-4-4-5-5-2-4 2 0 2 0 0-2l-4-3c-2-2-2-2 0-1l4 1c1 0 0-2-4-4-6-3-8-5-6-5l3 2h5l-6-4-5-3 4 1c3 0 3 0 2-1l-9-4a77 77 0 0 1-16-9l8 11zM553 206l14 13c19 18 26 22 36 23l-2-1c-9-4-14-8-28-21l-23-17 3 3zM630 208c-2 1 1 3 4 3s4-2 1-3h-5zM602 210c5 5 5 14 0 17l-2 4c0 4 2 5 3 1 0-2 3-4 5-6 5-3 5-4 5-8 0-3-2-5-8-8l-5-2 2 2zM577 222c1 2 5 3 5 2s-3-3-5-3v1zM587 229c3 3 5 3 2 0l-3-2c-1 0-1 1 1 2zM596 232c-1 2-1 3 1 4s3 0 2-4l-2-3-1 3zM659 295l-1 2c0 3 3 2 4-1 0-2-2-3-3-1zM651 304l2 1 2-1-2-2-2 2zM644 306l1 2 1-2c0-1-1-2-2 0zM655 318c-2 2-1 3 2 3s5-2 5-3c0-2-5-1-7 0zM95 116v1h1v-1h-1zM95 122c-2 1-1 2 1 2l2-2c0-1-2-2-3 0zM659 117l1 1 1-1-1-1-1 1zM658 122c-1 1 0 1 1 2 1 0 3 0 2-2h-3zM273 117l-5 5c2 0 10-4 11-7 3-3 2-3-6 2zM438 106l-3 1h2l4-2h-3zM475 114c0 3 12 9 14 8l-1-1-7-4-6-3zM227 109l2 1 3-1 1-1c-1-2-6-1-6 1zM523 108l4 2 1-2-2-1-3 1zM304 123v1l2-1c2-2 1-2-2 0zM449 122l2 1h1l-1-1h-2zM322 129l-2 3c2 0 7-5 6-5l-4 2zM430 128l5 4c2 0-1-3-3-4h-2zM309 130c-3 0-5 2-2 2l3-2 1-1-3 1zM445 131l4 1c3 0 2-1-2-2-3-1-3-1-2 1zM223 529v302h310V657l-1-303V226H223v303zm208-298c3 4 3 4 2 6-2 1-2 1-5-2-4-3-6-4-7-1h-3c-2-2-1-4 2-5 4-2 7-1 11 2zm-180 1c2 3 2 3 1 5-2 1-2 1-6-2l-4-4-3 4c-3 3-4 3-5 2-2-1-2-2 1-5s4-3 9-3c4 1 6 1 7 3zm45 0c3 3 3 4 1 5-1 2-2 2-5-2-4-4-5-4-9 1-2 2-3 3-4 2-2-2-1-4 1-7 2-2 4-2 8-2s5 0 8 3zm44-2c1 1 1 1-1 2h-5c-1-1-2-1-5 2-5 6-9 3-3-2 2-3 3-3 7-3l7 1zm45 1c2 2 2 2 0 4-1 2-1 2-4-1l-3-2-3 2c-3 3-4 4-6 2-1-1 0-2 2-4 3-4 10-4 14-1zm92 1 3 4-2 2c-2 1-2 1-5-2-3-4-5-4-9 0-5 5-7 1-2-4 2-3 3-3 7-3s5 0 8 3zm45 0c2 3 3 4 2 5-2 2-3 1-7-2l-3-3-4 4c-3 3-4 3-5 2-1-2-1-3 2-5 3-3 4-4 8-4s5 0 7 3zm-250 15-6 6-7-5-5-6 5-6 7-6 6 6 6 6-6 6zm46-10 4 5-6 5-6 6-5-4-5-6 5-7c6-6 6-6 13 1zm43-3c14 7 19 22 12 35l-6 8c-3 2-3 2-1 2 3 2 8 7 9 12 0 2 1 4 3 4 1 0 2-1 2-4 1-4 5-10 10-11l3-2h-3c-5-2-11-12-11-20 0-9 7-20 16-24 13-6 29 3 30 16 1 11-5 17-15 17-5 0-10-3-10-6 0-2 0-2 2-1 3 2 10 3 12 1h-1c-2 0-8-1-10-3v-4l1 1c1 2 2 2 5 2 4 0 5-1 5-4 1-11-15-13-19-3-6 11 2 25 16 30 11 4 21 10 34 21 5 4 6 5 5 2-2-5 0-14 4-17 2-2 8-2 9 0 2 3 1 3-4 2-4-1-4-1-5 1-2 3-3 10-2 10l1-4c0-3 1-4 3-4s2 0 1 3c-1 5 0 12 2 17l15 20-1-5c-1-7-1-25 1-31 2-9 10-15 16-13l1 1c-2 0-2 0 1 2 3 1 3 1 0 1-2 0-2 0 1 2 5 1 7 3 5 4h-3c-2-2-8 2-12 8-6 9-8 30-3 41l2 5 1-13c1-11 1-13 3-18 5-9 12-12 17-8l2 2-4-1h-3l3 2c5 2 7 4 7 6s-1 3-2 1c-2-2-6-1-9 3-4 4-6 12-7 25v11l6 12c11 22 16 44 16 65v10h3l6 2c2 3 2 3 1 4-7 2-8 3-12 7-7 7-11 18-11 29 0 4 0 4-2 3-2-2-4-8-4-15s1-12 4-16c3-6 5-17 3-29l-2-15-1-4-3 4-3 3 2 6c5 13 6 23 3 30l-1 4-1-10c0-8-1-11-4-16-7-15-17-19-28-12-4 3-6 3-4-1 2-6 11-9 18-6 5 2 5 2 1-1-5-3-12-3-17 0-3 2-4 2-2-1 2-4 7-9 11-10 3 0 3 0 3-5 0-7-1-8-3-7l-5 4c-2 3-3 1 0-3 2-4 1-5-1-2h-2c0-1 5-6 9-7l4-2h-3c-4 0-9 3-12 7l-1 4-1-4c0-7 6-13 14-13 6 0 10 2 15 8l2 3-1-3c-2-11-11-28-22-43-13-17-36-36-49-42-7-3-18-3-21 0s-4 8-1 12l-2-1c-5-5-5-3-1 2l2 3-2-1-5-3c-2-2-3-2-1 1 2 4 10 6 14 4 1-2 1-2-1-2s-2 0 0-1c2 0 4-2 4-4s-3-4-5-4c-3 2-2-1 1-2 5-2 8 6 4 11l-2 3 3-1c9-4 26 7 40 25 6 8 6 8 5 10l-3 3-3-5c-7-11-27-27-35-27-3 0-3 0-2 1v4l-3-2-2-1c0 2 2 5 4 5v1c-5 3-9-3-7-8 1-4 1-4-1-4-6 2-14-5-15-11-1-2-2-3-4-3l-2 2-2 5c-3 5-9 8-14 7l-3-1 2 3c2 4 1 6-1 9-2 1-3 2-4 1-2 0-2 0 0-2l2-4v-3l-2 3c0 2-2 3-2 3-2 0-2-2-1-2 3-2 1-3-3-3-11 2-28 17-37 33-3 6-3 6-4 0-1-3 0-4 5-12 12-17 26-27 38-27 5 0 5-1 3-2-3-5 0-12 5-11 2 0 3 1 3 2h-2c-2 0-4 2-4 5 1 3 5 4 7 1 3-2 3-9 0-12-2-2-3-2-10-2-10 1-16 4-31 14a150 150 0 0 0-53 76l4-4c5-6 11-9 17-7s10 6 10 12v5l-2-3c-3-5-5-7-10-8h-4l3 2c4 1 8 5 9 8l-1-1c-3-3-3-3-1 1 2 5 1 7-1 3-4-4-7-5-7-1l-1 7c0 2 0 3 2 3 3 0 9 4 11 7 3 5 3 6-1 4s-12-3-16 0c-4 2-3 2 2 1l7-1c5 1 10 6 10 9 0 2-1 3-3 0-4-4-13-5-19-3-8 5-15 19-15 33 0 6 0 6-1 5-4-5-3-20 2-31l3-7-3-3-3-3-4 19c-1 10 0 21 4 27 5 12 5 24 0 31l-3 2v-6c0-8-3-17-7-24-4-5-11-10-14-10-5 0-2-5 4-6h4v-13c1-22 6-39 16-61l6-13v-12c-1-13-3-21-7-26-2-2-7-3-9-1-1 2-2 0-1-2 0-2 3-4 5-5l5-2h-4l-4 1 2-2c6-5 15 0 19 11l1 17c1 11 2 12 5 2 2-9 1-25-2-33-3-6-7-10-11-12h-4c-2 2-3 1-3-1 0-1 1-2 5-3l3-2-2-1 2-1v-1c-2-2 6-1 9 0 3 2 7 10 9 17v23l-2 9 16-22c2-4 2-6 2-11l-1-7c-1-2-1-2 1-1 2 0 3 2 4 5 1 4 1 4 1 1 0-4-3-10-4-10-4 2-9 2-9 1l5-5c6 0 10 7 10 16l-1 6 10-8c7-6 14-10 23-14 15-8 18-10 22-16 6-11 0-26-11-24-7 2-11 10-5 14h5l2-3 1-1c2 0 1 4-1 6l-6 2h-4c3 2 10 1 12-1 2-1 2-1 2 1 0 3-5 6-10 6-7 0-11-2-13-7-4-8-2-16 5-23 7-6 16-7 24-3zm92 3 5 5-6 6-5 6-6-6-6-6 5-5 7-6 6 6zm49 5-6 6-5 6-6-6-5-5 6-6 5-6 6 5 5 6zm-273 3-3 2v-10l3 2 3 3-3 3zm17-5c1 1 1 2-1 3-2 2-2 2-4 1v-3c2-2 3-2 5-1zm43 0c2 0 2 2 0 4h-3l-1-3c1-2 2-2 4-1zm90 0c1 1-2 3-3 3v-3h3zm48 3c-1 1-3-1-3-3h2l1 3zm45-1-2 2h-4v-4c3-1 6 0 6 2zm46 0-2 2h-4v-4c3-1 6 0 6 2zm11 1c0 3 0 3-2 1-2-1-2-1 0-3 2-3 2-3 2 2zm-276 5c0 1-2 4-5 6l-5 5-5-5c-5-5-6-6-4-7 1-1 1-1 4 1 3 4 6 4 10 0 2-2 3-3 4-2l1 2zm74 2-1 2-1-2c-2-2-2-2-1-4 2-2 4 1 3 4zm-42-1 3 4 4-4c3-2 4-3 5-2l2 1-5 6-6 5-5-5c-5-4-5-5-4-6 2-3 2-2 6 2zm148-2c1 2 0 5-4 8-2 1-2 1-2-2s2-7 4-7l2 1zm33 2 3 4 4-4c3-3 4-3 6-2 1 1 1 2-4 7l-6 5-9-8v-4c2-2 2-1 6 2zm44 1 4 3 4-3c3-4 6-5 6-1 0 2-8 10-9 10l-7-5c-4-4-5-6-4-7 2-2 2-1 6 3zm-153 4c0 2-2 2-3 0l1-1 2 1zm44 0-1 2-2-2 2-1 1 1zm-167 6 4 5-5 5c-5 4-6 5-7 4-1-2-1-4 2-6 3-3 3-5 0-6-1-1-2-2-2-5s0-3 2-2l6 5zm27-5c1 2 1 3-3 6l-3 4 3 4c4 3 4 3 3 5-2 1-2 1-7-3l-5-6c0-2 9-11 10-11l2 2zm18 5 3 4-5 7c-4 4-5 4-6 3-2-1-2-2 2-5l3-4-3-4c-4-3-4-4-2-5 2-2 4-1 8 4zm25 0c-4 3-4 5 0 9 3 3 3 3 2 5-2 1-2 1-7-4l-5-5c0-1 2-4 5-6 5-5 5-5 7-4 1 2 1 2-2 5zm19 0 6 5-6 5c-4 5-5 5-6 4-3-2-2-3 1-6l3-3-3-3c-3-4-4-6-2-7 1-2 2-1 7 4zm116 1-3 4 3 4c4 3 4 4 3 5-2 1-3 1-8-4l-5-5 5-6c5-5 6-5 7-3 2 1 2 1-2 5zm24 3c0 2-9 11-11 11s-2-3 2-6l3-4-3-4c-4-3-4-4-2-5 1-2 2-2 6 3l5 5zm24-6-3 3c-3 2-2 5 1 8 3 2 3 3 2 4-2 3-3 2-8-3l-5-5 6-5c4-5 5-6 7-5v3zm18 2 4 5-4 5-7 5c-2 0-2-3 0-6 4-3 4-4 1-7l-3-4c0-5 2-4 9 2zm24 0-2 4 1 4c2 4 3 6 1 6l-9-9 4-6c5-5 7-4 5 1zm-261 3c1 1 0 2-1 3-1 2-1 2-3 0-2-1-2-1 0-3s3-2 4 0zm180 3c-1 2-1 2-3 0-2-1-2-1 0-3 1-2 1-2 3 0 2 1 2 1 0 3zm-135-2v3h-4c-1-2-1-5 1-5l3 2zm181-1v3c-2 2-3 2-5 1-1-2-1-2 1-3 2-2 2-2 4-1zm-241 17-1 2c-1 1-1 1-4-1l-4-3c-1-1-1-1-4 2l-5 3c-3-1-2-3 3-9l5-5 5 5 5 6zm41-6 4 5c0 2-7 1-8-1-2-2-2-1-6 2s-6 3-6 1l10-11 6 4zm43-1 3 4-2 1h-4c-1-1-2 0-5 2-3 3-3 3-5 2-1-2-1-2 4-7l5-5 4 3zm96 10c-2 1-2 1-6-2-3-3-4-4-5-3l-4 1-2-1 4-4 3-4 6 6c5 5 5 5 4 7zm42-8c4 5 4 5 3 7-2 1-2 1-5-2s-4-3-6-2l-2 2-5-1 9-9 6 5zm45 1c3 2 4 4 4 5-1 3-4 2-7-1l-3-2-4 2c-3 3-5 4-6 1 0-1 1-3 5-6 5-6 5-6 11 1zm-173-4v1h-3v-2l3 1zm64 1h-3c-1 0 1-2 3-2v2zm-144 4-1 1-1-1 1-1 1 1zm49 4 5 4-4 3-4 1c2-3 1-5-2-5-4 0-5 2-2 5 2 1 2 2 1 3l-1 1-3-5-3-4 2-3c2-3 5-5 6-5l5 5zm136 1-1 2c-2 2-2 2-3 1-2-2-2-2-4 0-1 1-2 2-1 3l2 2 1 1c0 3 0 2-6-1l-4-3 5-6 5-5 3 3 3 3zm43-4 1 2-6-3c0-2 3-1 5 1zm-264 10-3 3-2 2v-12l3 2c2 2 3 4 2 5zm14-3v3c-2 2-4 2-5 0l3-4 2 1zm43 2c0 3 0 3-2 2v-3c2-3 3-2 2 1zm183-1v3c-1 2-2 2-3 0-2-2-2-2-1-4 2-1 3-1 4 1zm45-1c2 3-2 7-4 5v-5h4zm13 3v4l-2-2c-2-2-2-2 0-4l2-2v4zm-26-1-1-1c-1-1-1-1 0 0l1 1zm-264 7c3 4 5 4 9 0 3-3 3-3 4-2 1 2 1 2-4 7l-5 5-4-3c-6-5-8-8-6-9 3-2 4-1 6 2zm271 0c4 4 6 4 9 0 3-3 3-3 4-2 2 1 2 2-3 7l-6 5-5-5c-5-4-6-5-4-6 2-3 2-3 5 1zm-43 2c1 2 2 3 1 5 0 2-1 2-4-1l-3-5c1-3 4-2 6 1zm-177-1h3l1 2c0 2-5 6-6 6-2 0-3-3-3-7 0-2 0-2 1-1 2 2 2 2 4 0zm-57 9 5 6-6 5c-4 4-5 5-6 4-1-2-1-2 2-6l2-4-2-3c-3-3-4-5-2-6 1-2 2-1 7 4zm28-4c2 2 1 3-2 2-1-1-2-1-1-2h3zm84 2c1 5-5 7-7 2-2-3 0-5 4-5 2 0 3 1 3 3zm73 0c0 6-7 6-8 1 0-3 2-4 5-4 2 0 3 1 3 3zm82-2-1 1-1-1 1-1 1 1zm29 5c0 2-1 3-2 3v3l3 5c1 4-2 4-6-2l-4-4 4-5c5-4 7-4 5 0zm-196 1c3 4-1 9-5 6-3-2-2-7 2-7l3 1zm95 0c2 1 1 5-1 6-4 3-8-2-5-6h6zm-106 8 2 2c0 1-3 4-5 4s-4-2-4-4c0-4 5-5 7-2zm117-1c3 4-1 9-5 6-3-2-2-7 2-7l3 1zm81 7c5 5 5 5 3 7-1 2-1 2-5-2l-4-3-4 3c-3 4-4 4-5 2-2-2-1-3 3-6 2 0 3-2 3-3 0-2 1-3 3-3l6 5zm-277-2 4 4 4 1c2 0 2 3 1 5-1 1-2 0-5-3l-4-4-4 4c-4 3-4 3-6 2-1-2-1-2 3-7l6-4 1 2zm70 4c2 2 1 5-1 6-3 2-7-2-6-6h7zm136 1c1 3-2 6-5 6-2-1-4-5-2-7s6-1 7 1zm-220 11c-2 3-2 3-3 1v-9l3 3 3 2-3 3zm272-5 2 3-4 4-4 4v-3l3-10 3 2zm-256 4c-1 2-2 2-4 0-2-1-2-1 0-3 1-2 2-2 3 0 2 1 2 2 1 3zm13-2 1 4c0 2 0 2-3 0-2-3-2-3-1-4 2-3 3-2 3 0zm178 10 7 9c0 2-2 0-7-5a187 187 0 0 0-11-14c2 1 7 5 11 10zm80-10v3h-4c-1-2-1-5 1-5l3 2zm13 3c0 2 0 2-2 0-2-1-2-1 0-3s3-1 2 3zm-224-2c2 3 1 6-2 6-5 0-7-5-3-7 2-1 4-1 5 1zm20 5-10 13c-3 5-6 7-6 5s20-25 22-25l-6 7zm76-4c14 3 28 12 33 20 2 4 3 4 8 3s10-5 11-9c1-5 2-4 2 1v4l-4 14-7 8c-3 2-6 6-7 9-3 5-5 6-5 4l3-6 2-5-2 1-4 4c-1 3-2 4-3 2-1-1 0-2 2-4l5-10-6 5c-5 7-7 6-3-1l3-7c-1-2-1-2-3-1-5 4-7 1-2-4l3-4-7 2-6 4c-2 1-1-1 4-6 5-6 4-8-3-3l-6 3 2-4 3-5c0-2-2-1-6 3l-5 3 1-5c1-6 0-7-3-3l-4 4c-1 0-1-4 1-7 1-3-3-2-4 1-2 4-4 3-5-1-2-4-4-4-4 1l-2 4-1-4-3-4c-2 0-2 1-1 4 0 4-1 4-4 0l-4-3c-2 1-2 1 0 5 3 5 2 5-2 1l-6-3h-3l2 2 3 7-4-3c-3-3-7-4-7-4l3 5 2 4-5-3c-4-3-7-4-8-2l1 2c3 1 6 7 4 7l-6-2c-6-4-8-3-4 2 2 1 3 3 2 3-1 1-4 0-6-2-1-2-4-1-4 1l2 4c2 1 3 5 1 5l-4-1c-3-2-3-2-3 0l3 6 3 5c0 2 0 2-3 0-3-3-7-5-7-4l3 4c3 4 4 5 2 7h-3c-2-3-11-9-11-8l3 4c4 4 9 11 9 13s1 0 3-4l6-8 4-3-2-3-2-3 4 2 5 2c2 1 2-2 0-3-2-2 0-3 2-2l5 2c1 0 1-1-1-2-5-4-3-4 3-1l6 2-2-4c-4-4-3-5 2-1 8 5 7 5 7 0-1-5 0-5 3 0 2 3 5 4 4 1-3-8-2-9 1-2 2 5 4 5 4 0s2-6 3-1c1 4 1 4 2 3l4-5 2-2v4l1 5 4-3c4-4 6-4 4 0l-2 4 6-3c7-3 7-3 3 1-2 3-2 3 0 3l4-1c4-3 5-2 2 0l-2 3c0 2 3 1 7-1 5-2 6-2 4 0s-2 2 1 6l8 8c5 7 7 7 7 4l3-6c2-1 5-6 8-11l5-7c0 2-4 13-8 20-3 7-4 10-1 14l1 4c0 2 0 2-2 1-3-2-3-2-3 0l2 5 2 7h-3c-2-2-2-2-2 1l1 6 1 4c-1 1-1 1-2-1-2-1-2-1-2 5s0 7-2 7c-1 0-2 0-2 3s-2 6-3 4c-2-2-4 1-4 5 0 3-1 5-3 2-1-2-1-2-3 5-1 3-4 7-7 7l3-22c2-10 3-14 7-21 4-8 4-9 4-15-1-12-8-22-16-24-8-1-13 1-25 10-5 3-9 3-18-2-7-6-12-6-18-3-15 6-23 36-14 45 9 8 10 10 15 19l5 10 1 11-3-3c-4-3-6-4-5-1v1l-5-7c-1-3-4-4-4-1l-2-1c-2-1-3-3-2-4l-2-5-1 2c-1 2-1 2-3 0-2-1-2-2-1-5 0-3-1-4-3-2 0 2-3 2-3-1l1-6 1-5-3 2c-3 5-4 0-1-7 1-5 1-5-2-3l-3 2c-1-1 0-6 3-10 1-2 1-2-2-1-3 2-3 1-1-5l2-5-4-3-4-7a731 731 0 0 0 0-11c3 10 4 13 7 16 4 3 4 2 2-4l-1-7 2 3c2 4 5 7 5 5 0-3-6-14-14-22-7-9-12-18-13-25v-2l1-1c-1-1 0-5 1-5l2 4 2 6c2 4 8 7 12 7s4 0 8-6l10-12c8-8 19-14 31-16 8-2 27-2 36 1zm55-2c2 2 1 7-2 7-5 0-7-5-3-7h5zm-209 8c3-3 3-3 5-2 1 1 0 2-4 7l-5 5-6-5c-5-5-5-6-3-7 1-2 2-2 5 2l4 3 4-3zm264 0 3 3 4-3c3-3 4-3 5-1 1 1 1 2-4 6l-5 5-5-5c-4-3-5-5-5-6 1-3 3-2 7 1zm-213 4c3 4-4 8-7 4-1-2-1-3 1-5s5-1 6 1zm166-1c2 3 0 7-3 7-2 0-4-2-4-4 0-4 5-5 7-3zm-232 7 5 5-5 5-5 5c-2-1-2-3 1-6s3-6 0-7l-2-4v-3l6 5zm26 2c-2 3-2 4-1 6 2 1 2 2 0 3-1 2-1 2-5-2l-4-3 5-6 6-5v3c1 2 0 3-1 4zm241-5c1 0 4 2 6 5l3 4-4 5c-5 4-5 5-6 2-1-1 0-2 2-4 3-3 3-4-1-8-3-2-4-3-3-4h3zm30 6-1 4 1 5v3l-4-4-5-5 4-6c4-4 5-4 5-2v5zm-238 2c2 1 1 5-1 6-4 3-8-2-5-6h6zm179 0c3 4-1 9-5 6-3-2-2-7 2-7l3 2zm-220 13c2 3 2 6 0 6l-3-3-3-3-4 3c-4 3-5 4-7 2-1-1 0-3 4-7l5-5 3 2 5 5zm271 0c3 3 3 4 2 6-1 1-2 1-5-2l-3-4-4 4c-4 3-4 3-6 1l-2-1 5-6c6-6 6-6 13 2zm-63 7-3 4c-1-1 0-3 1-7 2-5 3-6 4-4l-2 7zm-158-1c1 5 0 5-3 0-1-2-2-4-1-5 0-2 0-2 2 0l2 5zm-70 3c2 2 2 2-1 4-2 3-3 3-3 1v-5c0-4 2-4 4 0zm299 2v3l-2-2c-2-2-2-2 0-4s3-1 2 3zm-284-2c1 1 0 2-1 3-1 2-1 2-3 0-2-1-2-1 0-3s3-2 4 0zm271 4h-3c-2-1-2-3-1-5 1-1 2-1 3 1 2 2 2 2 1 4zm-277 4c3 3 3 3 5 2s3 0 1 5c-2 4-3 3-9-3-3-2-4-4-4-5 1-3 3-2 7 1zm285-2c1 2 0 3-4 7-3 3-5 5-7 5-2-1-4-5-5-9l-1-3 3 3 4 3 3-3c4-4 5-5 7-3zm-292 12 5 5-5 5-6 5c-1-1-1-2 2-6l2-4-2-2c-2-2-3-8-1-8l5 5zm297 2-1 4 2 5-1 3c-2 0-9-7-9-9l4-5c4-3 5-4 5-2v4zm-119-2c2 2 2 2-1 2-4-2-11-1-14 1h-1c1-2 7-5 10-5l6 2zm-46 5-4 1-8 3c-3 2-3 1-2-1l3-3h11zm39 1-2 1-2-2 2-1 2 2zm4 3c-1 3-7 7-10 6-2-1-3-2-3-4 0-3 2-5 3-2 1 4 8 2 8-3h1l1 3zm-24 1h-3c-2 0-2 0-1-1s4 0 4 1zm-20 0-3 1c-2-1-1-2 1-2l2 1zm-3 5 4-2 3-1-2 2c-3 4-12 4-12-1 0-3 1-3 4 0l3 2zm56-1-5 8-4 5c2 1 12-6 12-9l2 2c2 3 2 4 1 7l-3 5c-2 1-3 4-3 5l-1 4c-2 3-2 0-1-5v-6l-3 2c-2 4-2 3-7 2-5-3-8-6-11-11l-2-5 3 1c6 1 8 0 12-3s5-3 2 1l-1 2 7-6c2-4 2-4 2 1zm108 7c0 3-3 2-6-1-4-3-6-7-4-9 0-1 10 8 10 10zm-139-8-5 1-3-1 4-1 4 1zm-148 8c-2 3-3 3-4 2-1-2-1-2 3-6l4-4v3l-3 5zm149 1 3 8 1 4-3 2c-1 1-1 1 1 1l6 1h-1c-2 0-8 3-8 5-1 1-1 1-5-1l-6-3c-2 0-2 0-1-2l3-2c2 0 2 0 1-1s-2-2-1-5l1-8c-1-3-1-3 3-3l5-1 1 5zm-24-2c6 0 7 0 5 1h-15c-3-2-2-3 1-2l9 1zm-14 1c0 1 8 4 12 4 3 0 4 0 10-4 6-3-2 9-9 15-5 4-6 4-10 4-4-1-5-1-2 5 2 6 1 7-3 1l-7-8c-4-3-5-8-3-11 1-1 1 0 1 3s1 5 3 7c3 3 4 1 1-3-2-3-2-5-1-10l1-3 3 4c2 4 7 7 11 7s4-2 0-2l-6-3c-2-3-3-7-2-7l1 1zm-119 9-3 3v-11l3 2 3 3-3 3zm300-3v4l-2-2c-2-2-2-2 0-4l2-2v4zm-243-2 4 4c0 2 1 3 9 3l7 2c3 2 5 8 5 11-1 3-5 5-7 3-1-1 0-3 2-3s2 0 1-2c-1-3-6-2-8 1-4 3-4 5 0 7 3 1 4 2 4 5s-2 3-5 2c-2-1-5 2-5 5 0 2 1 3 4 1s7-2 7-1l-2 2c-3 3-4 7-4 13l1 5 1-6 3-6 2 4c2 8 6 17 10 22l3 5-3-1c-4-2-8-7-10-12-1-3-2-4-2-2 0 6 8 16 14 18 5 2 21 2 22 0 2-2 1-4-2-5-3 0-2-2 2-3 5 0 8 4 9 10 0 4 1 5 2 5l3-1c2 0 2-1 2-2 0-2 1-3 2-3l3 2 18 1c16 1 17 0 17-1 1-3 6-2 5 1l2 2 4 1c2 0 2 0 1-2 0-3 2-10 5-12l5-1c4 1 5 3 2 3s-3 0-3 3 0 3 6 3c12 2 21-1 26-9l5-12-3 4c-2 5-10 13-12 13l2-4c4-5 8-13 10-21s3-8 5 1c2 4 2 4 2 2 1-4 0-10-4-14-2-3-2-3 0-4l5 1c4 2 5 2 4-2-1-3-3-4-6-3-3 2-4 0-4-4 1-1 2-3 4-3 4-2 4-4 1-8-3-3-7-3-9 0-1 2-1 2 2 2 2 0 2 0 2 2l-2 2c-3 0-5-3-5-7 0-5 4-9 11-10 8 0 9-1 9-2l3-4c2-2 2-2 6-1 6 2 10 7 14 16 2 5 3 6 3 18l-2 18c-3 6-2 9 4 16 9 10 9 17-1 27-6 7-11 10-20 13l-6 1 6 2c20 7 31 21 27 32l-6 9c-6 7-6 9-4 18 3 11 3 25-1 34-6 12-14 18-20 15l-3-5c-1-2-2-2-5-2-9 0-15-4-15-11 0-3 2-6 5-6 2 1 3 4 0 4s-2 3 1 4c4 0 8-3 8-6 0-2-1-3-3-5-4-2-5-5-3-6h6c2 0 4-6 4-7l-5 1-6 2c-1-1-1-1 1-4 3-3 6-11 4-14 0-2-1-2-2 3-2 8-3 8-5 0-2-9-5-15-9-20l-3-5c2 0 10 8 12 12l2 4v-3c-1-5-6-12-10-14-5-3-11-4-20-3-6 0-6 0-6 3 0 2 0 3 3 3s2 2-2 3l-5-1c-3-2-5-9-4-12 0-2 0-2-2-2l-4 1c-2 0-2 1-2 2 1 3-4 4-5 1 0-1-1-2-17-1l-18 1c-2 3-5 2-5-1 0-1 0-2-2-2l-3-1c-1 0-2 1-2 5-1 6-4 10-9 10-4-1-5-3-2-3 2 0 3-1 3-4-1-1-2-2-7-3-13-1-23 4-28 13-3 6-2 10 1 4 2-4 9-12 11-12l-4 7-6 13-3 10-1 3-1-4-2-5-1-3c-1-1-1 0-1 5 1 4 1 7 3 9l3 4c0 2-4 1-7 0-3-2-4-2-4 0 0 4 3 7 6 5s4-1 4 2-1 4-4 5c-4 2-4 4 0 8 2 2 6 3 8 1s1-3-1-3-3-1-2-3h3c6 2 5 11-1 13l-16 4v3c-3 8-16 1-22-11-4-10-5-27-1-37 2-7 1-10-4-16-6-7-7-9-7-14s3-11 9-16c6-6 11-8 20-11l6-2-5-1c-8-2-15-5-21-11-6-5-9-11-9-16s1-7 7-14c5-6 6-9 3-19-4-14-2-30 6-41 2-3 5-6 7-6 4-2 4-2 7-1zm231 3c-1 2-2 1-2-1s0-2 2-1v2zm-280 5 2 4v3l-3-3c-3-3-4-4-3-5 2-1 2-1 4 1zm286-1c1 2 0 4-3 8-5 4-7-1-2-6 3-3 3-3 5-2zm-114 11c4 4 4 5 4 9 0 3 0 5-2 7s-2 3-10 2c-10 0-14-2-16-5-1-4 0-6 2-5 1 1 1 1 1-1-1-3 0-4 4-1 3 1 4 1 1-3-1-2 0-3 4 0 3 1 4 1 3-1h3l3-1c0-1-3-4-6-4l-2-2c0-1 6 1 11 5zm-40-4c-4 1-5 2-8 6l-2 2 3-1 6-2h2l-2 2-2 3 4-1c5-2 6-2 3 2-1 2-1 2 1 1l4-3c2-1 2-1 2 1-1 3 0 3 1 2 2-2 2-1 2 4-1 6-3 7-15 7-9 0-10-1-12-3-4-3-4-9 0-13 4-5 10-8 13-8 2 0 2 0 0 1zm-138 4c3 4 3 4 1 5h-4c-3-3-4-8-1-8l4 3zm298 2c0 2-1 3-2 3-1 1 0 2 1 5 2 4 3 6 1 6-1 0-3-3-3-6l-3-4-2-2 4-3c4-4 6-3 4 1zm-300 13-2 2c-1 0-2-2-1-5 1-2 1-2 3 0 2 1 2 2 0 3zm213 2c7 5 7 6 6 13s-5 14-10 20c-6 7-13 10-13 7l-2-4c-3-3-11-3-13 0l-3 1c-2-1-7 1-10 5l-3 3h-16l-15 1-5-5c-4-4-6-5-8-5l-6-1c-4-2-5-2-8-1-4 1-5 2-5 5-1 3-2 3-5 2-9-3-14-10-16-22-2-6-2-7 0-9 1-3 6-6 10-7 3 0 4 0 8 5l4 3c0-2 2-1 3 2 2 4 5 6 6 4 1-1 1 0 3 2l2 5c1 2 2 2 3 2 2-1 3 0 6 2 4 4 5 4 5 0v-3l5 3c5 5 12 6 23 6 9-1 15-3 19-9 3-4 4-5 4-2l1 2c1 0 10-11 10-13l1-2h1l1 2 4-8c0-3 0-3 2-2 1 2 1 2 2 1l2-4c0-3 2-2 7 1zm82 7c-2 2-4 1-7-2-3-2-3-2-1-4 1-2 2-2 5 1l3 5zm-285-1c-3 2-4 3-6 1-1-1 0-2 2-4 2-3 3-3 4-1 2 1 2 1 0 4zm164-1c4 2 5 2 6 5 0 2 0 2-1 1s-2-1-4 1h-1c1-3-1-2-2 1l-3 3v-3c0-4-2-4-4 1-1 3-3 4-2 1s-2-3-3 0c-1 2-1 2-2 1 0-2-2-3-2 0l-2-2c-3-3-4-2-3 2l1 3-3-4c-3-3-5-3-3 1 1 2 0 2-2-1l-4-2-3-1-4-3v-3l30-3 11 2zm-172 8-2 3-3 2v-11l3 2 2 4zm14-1-1 3c-1 1-2 1-3-1-2-1-2-1 0-3 1-2 2-2 3-1l1 2zm270 2c-1 2-1 2-3 0-2-1-2-1 0-3 1-2 1-2 3 0 2 1 2 1 0 3zm14 0v3l-2-2c-2-2-2-2 0-4s3-1 2 3zm-283 7c3-3 4-4 4-1 1 1 0 3-3 6l-5 4-5-6c-5-5-5-5-3-7 1-1 2-1 5 3l4 3 3-2zm160-1c-3 5-5 7-10 9h-21l-9-7 5 2c9 5 26 2 33-5 4-4 5-4 2 1zm104 0 4 3 4-3c4-4 5-5 6-2l-5 7-5 5-5-5c-5-5-6-6-4-8s3-1 5 3zm-278 9 6 6-5 5-7 5c-2 0-1-3 1-7 3-4 3-4 1-6s-4-8-2-8l6 5zm298 0-2 4v5c2 4 3 7 1 7l-5-5-5-4 5-5c5-6 7-6 6-2zm-23 8c-3 3-4 2-5-4v-5l3 3 4 3-2 3zm-255-4-1 3h-2v-2c2-2 3-2 3-1zm-4 12c3 3 5 7 3 9-1 0-3-1-5-4l-4-3-4 3c-2 3-3 4-5 3-2-2-1-3 4-8 6-5 6-5 11 0zm106-3c0 3-2 4-3 2-2-1-1-4 1-4l2 2zm52 0c0 2-3 4-4 2-2-1 0-4 2-4l2 2zm113 3c5 5 6 6 4 8-2 1-2 0-5-3l-4-4-4 4c-3 4-4 4-5 3l-2-2c0-2 9-11 11-11l5 5zm-288 11-2 4-3 2v-11l3 2 2 3zm14 1-2 2h-3c-1-2-1-2 1-4 1-1 2-2 3-1l1 3zm271 1c-1 2-2 3-4 0-2-1-2-1 0-3 1-2 2-2 3 0 2 1 2 2 1 3zm13-1v4l-2-2c-2-2-2-2 0-4l2-2v4zm-272 3 2 3-3-2-3-4c0-3 2-1 4 3zm245-2-5 5c0-2 4-8 5-7v2zm-262 6 3 3 4-3c2-3 3-3 5-2 1 1 0 2-4 7l-5 6 5 5c4 5 5 6 4 7-2 1-3 1-5-2-4-3-6-3-8 1-2 2-4 3-6 0-1-1-1-2 4-6l5-6-5-5c-4-4-5-5-4-6 2-3 3-2 7 1zm271 0 3 3 4-3c3-3 3-3 5-2 1 1 1 2-4 7-6 6-6 6 2 13 3 3 3 3 2 4-2 2-2 2-5-1l-4-3-3 3c-4 3-5 4-7 2-1-1 0-3 4-7 6-6 6-6-1-12-3-3-4-5-3-6 2-2 3-1 7 2zm-282 8c2 2 3 3 0 5-2 3-3 2-3-2 0-5 0-6 3-3zm32-1c1 2 1 6-1 7-1 1-2 1-4-1l-3-2 2-3c3-2 5-3 6-1zm240 1 2 3-2 2-4 2c-2-1-2-3-1-4v-2c-1-1 0-3 1-3l4 2zm28 3c0 4 0 4-2 3l-2-3 4-5v5zm-258-1-1 2-1-1c0-2 1-2 2-1zm215 0-1 1v-1l1-1v1zm16 19-5-5c-1-3-1-3 3 0 2 2 3 5 2 5zm-245-3c-2 4-4 4-4 2l5-6-1 4zm-26 2c0 2-3 5-4 5l-1-5v-5l3 2 2 3zm298-3v6l-2-2c-2-2-2-2-1-3 2-2 3-2 3-1zm-285 2c2 1 1 4-1 4l-3-1v-3c2-2 2-2 4 0zm272 0c2 3-2 5-5 3-1-1-1-2 1-3 2-2 3-2 4 0zm-270 8c4-4 6-4 6-1l-4 6-5 5-5-5c-6-4-7-6-5-8 1-1 2 0 5 3l4 3 4-3zm264 0 4 3 4-4c2-3 3-3 5-2l1 2c0 2-9 11-10 11-2 0-11-9-11-10 0-2 2-4 3-4l4 4zm-277 10 5 5-6 6-6 5c-2 0 0-6 2-8s2-2-1-6c-2-4-3-7-1-7l7 5zm121-2c0 1 0 2-2 2s-3-3-1-4c1-2 3-1 3 2zm43 1 7 3 6 2c5 4 15 1 15-4l3-1c5 1 14 11 17 18l3 11c1 6 0 7-6 12-5 3-7 4-7 1l-1-4c-2-1-2-1-3 1-2 1-2 1-2-1-1-5-3-9-4-9l-1 2-1 1-1-3c0-2-9-13-10-13l-1 2c0 3-1 2-4-2-4-6-10-8-21-9-10 0-17 2-22 6l-4 3v-3c0-4-1-4-5 0l-6 3c-1-1-2-1-3 1-1 4-4 8-5 7-1-2-6 1-6 4 0 2-2 4-3 2l-4 4-5 4-4-1-7-4c-3-3-4-4-3-7 2-16 8-23 19-26h2l2 4c2 3 3 3 8 3l6-1 5-2c3 0 4-1 7-4l3-4h32l4 4zm9-2c0 2-3 4-4 2-2-1 0-4 2-4l2 2zm122 5v5l2 7-6-4-5-5 5-5c4-4 5-5 5-3 1 1 1 3-1 5zm-22 7-3 3-1-3 1-5 1-3 3 2 2 2-3 4zm-255-4 1 3-2-1-1-3c0-2 2-1 2 1zm11 9c2 7 0 17-4 24-3 5-4 16-3 27l4 19 3-3 3-3-3-7c-5-11-6-26-2-31 1-1 1-1 1 5 0 13 6 26 14 32 6 4 16 3 20-2 2-3 3-2 3 0 0 3-5 8-10 9l-8-1c-5-2-5-1-1 2 4 2 12 1 16-1l3-2v2c-1 4-9 11-12 11s-3 0-3 3l1 7c0 4 3 3 7-1 1-3 2-3 2-2l-2 5-1 4 3-3c2-2 2-2 1 0l-8 7-3 1c-1 2 7 0 9-2l4-4 2-3v4c0 3-1 5-3 7-6 8-15 7-23-1l-5-5 2 7c3 9 10 24 18 34 12 17 35 39 50 45 7 4 17 5 22 3s6-10 2-13c-3-3-6-2-7 1 0 3 2 5 4 5h2c0 3-7 3-8 0-2-3-1-6 1-9l2-3-3 1c-11 3-30-10-42-29-5-6-5-7-4-10 1-5 1-5 4 0 9 17 29 33 38 33 3 0 4-1 2-2v-3l3 2 2 2v-2l-2-3-1-2c2-3 7 2 7 6l-2 5c-1 2-1 2 2 1 2-1 6 0 10 2 2 1 6 8 6 11l2 1c2 0 3-1 4-3 1-7 9-13 15-11 2 0 2 0 1-2v-5c0-3 3-6 5-6 2 1 2 1 0 3l-2 4 2-1c2-2 4-3 4 0l-1 1-1 1 3 1c8 0 26-14 34-26l4-6 2 2 2 2-4 6c-13 19-31 31-41 28l-4-1 2 3c2 3 3 8 1 10s-7 1-8-1l2-1c2 1 5-1 5-3s-2-4-4-4c-2-1-2-1 0-1s2 0 1-1c-4-3-12-1-14 3-2 3-1 4 1 1l5-3h1l-4 7c0 1 2 0 3-2l2-2c-2 3-1 8 1 11s3 3 9 3l12-2c9-3 23-13 37-27a133 133 0 0 0 36-60l-5 4c-3 3-6 6-8 6-9 3-19-5-18-14 1-2 1-2 2 1 3 4 8 7 12 7h3l-4-2c-5-2-9-6-9-7l2 1c2 2 3 1 1-3-3-4-2-6 0-3l5 4c2 1 3 0 3-7 0-4 0-5-3-5-3-1-9-5-10-9-3-4-2-4 2-2 5 3 12 3 16 0s4-3 0-1l-7 1c-4 0-11-4-12-6-2-5 0-5 4-2 6 4 13 4 18 1 8-6 14-18 14-31 0-8 1-9 3-3 2 8 0 20-4 30l-3 5 3 3 3 3 3-7 2-19c0-12-1-13-4-19-6-13-6-28 0-33 2-1 2 0 2 6 1 13 7 24 15 30 2 2 5 3 7 3l2 1-7 5h-3l-1 14c-2 24-6 40-16 60-5 11-5 12-6 20-1 20 7 37 15 32l3-1c1 2-2 6-5 8-5 1-5 2-1 2l3-1-2 2c-3 3-7 3-10 0-7-4-9-11-10-26l-1-12-2 5c-5 10-3 30 3 40 4 6 9 10 12 8h3c2 1 0 3-4 4-4 2-4 2-2 2 3 0 3 0 0 2-3 1-3 1-1 1l-1 1c-6 2-14-4-16-13a98 98 0 0 1 0-36l-16 21c-1 4-2 13-1 17 1 2 1 2-1 2l-3-3c-1-4-1-6-2-4l3 10h5c5-1 6-1 4 2-1 2-7 3-9 0-4-3-6-13-4-17l1-2-9 7c-11 8-18 13-28 17-13 6-15 8-19 16-5 11 1 24 11 22 5-2 8-5 8-9 0-3 0-4-3-5s-7 0-7 3l-1 1c-4-3 3-8 9-8l4 1-3-2c-4-1-9 0-11 2-2 1-2 1-2-1 0-5 12-8 19-4 6 4 8 14 4 20-2 5-7 10-10 12-8 4-20 0-27-8-4-4-7-12-7-17 0-7 5-17 10-19l2-1-3-2c-4-3-7-7-8-11 0-3-1-4-2-4-2 0-3 1-3 4-1 4-5 10-9 12-2 0-2 1 1 2l6 8c3 5 3 6 3 12-2 21-25 33-39 19-7-6-8-14-5-22 2-5 6-7 13-7 5 0 10 3 10 6 0 2 0 2-2 1-2-2-8-3-11-1-1 0-1 1 3 1l6 1c2 2 3 6 1 6l-1-1-2-3c-9-3-11 8-3 12 4 2 5 2 8 1 5-1 8-6 8-13 0-6-2-11-7-16-4-4-4-4-19-11-8-3-17-10-28-18l-3-3 1 5c1 9-3 16-9 16-4 0-6-2-6-4l8 1c2 0 5-6 5-11v-3l-1 4c-1 5-1 6-4 6-2 1-2 1-1-1l1-8-3-12-15-20 2 9c3 18-1 35-9 40-3 1-11 2-9 0 1 0 1-1-2-2-2-1-2-1 0-1s2 0-2-2l-4-3c0-2 0-2 3-1 4 3 13-7 16-16l2-16c0-11-1-13-3-17l-2-4v5c0 10-2 21-4 26-4 8-12 11-17 7l-2-2 4 1h4l-5-2c-5-3-7-6-5-8h1c1 2 4 3 7 1 5-3 9-17 9-30v-9l-6-13c-10-21-15-38-16-61v-13h-4c-6-1-9-6-4-6 3 0 10-5 14-10 4-7 7-16 7-24v-6l3 2 3 7zm135-2c5 2 7 4 9 8 3 5 1 5-3 1-6-7-23-10-32-5l-5 2 6-5c8-4 17-4 25-1zm-147 8c0 3-1 3-4-1l-3-2-4 3c-3 4-4 4-5 3-2-2-2-2 3-7l5-6 5 4c3 3 4 5 3 6zm274 2c0 3-2 2-6-1l-4-4-4 4c-2 3-3 3-4 2-3-2-2-3 3-8l4-5 6 5 5 7zm-167 0-1 6-4 8c-4 10-9 17-13 18l-4 5c-2 3-2 5-2 12s0 9 3 15c4 8 8 13 14 16s11 2 19-3c9-6 12-6 22 2 7 6 17 8 24 5s13-16 12-27c0-4-1-7-5-12a151 151 0 0 1-9-42c2-1 6 3 7 7 2 7 2 7 3 5 2-3 3-1 3 2s2 7 3 5c2-2 3-1 4 3 0 3 1 4 2 4 2 0 2 1 2 7s0 6 1 5c3-3 3 0 2 5-2 6-2 8 1 5 2-1 2-1 3 1l-2 6-2 6 3-1c2-1 2-1 2 1l-1 4c-3 4-2 8 1 15 5 9 8 18 8 19l-5-8-7-9-3-6c-1-4-3-4-6 0-1 3-3 5-10 12-3 3-3 3-2 5 4 2 2 2-3 0-6-3-9-2-5 2 3 2 2 2-3 0-5-3-6-2-2 2 3 4 2 4-5 1l-5-2 2 3c2 4 0 4-4 0l-4-3-1 5v5l-2-3-4-5c-1-1-1-1-2 3-1 5-3 5-3 0s-2-6-3-2c-2 4-5 7-4 3l2-4c0-3 0-3-2-2l-2 4-3 3c-2 1-2 1-1-2 2-6 1-6-5-2s-8 4-3-1l2-3h-2l-4 1-5 2c-2 1-2 1 1-2 3-2 3-3 2-3l-5 2c-3 2-4 1-2-2 3-2 1-4-2-2l-5 2-2 1 2-3 2-4c-3 0-7-4-9-9l-3-6-2 3-5 9-5 5c0 1 9-5 10-7h3c2 2 1 3-2 7l-3 4c0 1 4-1 7-4 3-2 3-2 3 0l-1 2-1 1-2 4-2 4c0 2 0 2 3 1l4-2c2 0 1 4-1 6s-3 5-1 5c1 1 3 0 4-2 3-2 5-2 5-1l-2 4c-2 1-3 2-2 3s2 1 5-1l6-3c2 0 1 3-2 6-5 5-1 6 6 1l4-3c2 0-2 6-4 7-1 1-1 1 1 1l6-3 4-3c2 0-2 6-4 7s-1 2 2 2l6-3 4-3-2 4c-1 4-2 4 0 5l4-3c3-4 4-4 4 1-1 2-1 3 1 3l3-4 1-4 2 4c0 5 2 5 4 1 1-5 3-5 4-1l3 3c2 0 2 0 2-2-2-3-2-7-1-7l3 3c2 3 6 4 5 2-2-4-2-9-1-9l4 4c3 3 6 4 6 2l-3-5-2-5 6 4 5 3c2 0 1-3-2-6s-6-7-4-6a613 613 0 0 1 13 6l-3-4c-5-5-3-8 2-5 5 4 3-5-2-10-2-2-2-2-1-3s3 1 7 5c6 7 7 5 1-3-5-7-4-9 1-4l4 4-2-5c-4-8-2-8 3-1 1 3 4 7 7 9l7 7 4 15v4c0 5-1 6-2 1-1-3-4-6-9-9-5-2-7-1-9 2-2 4-13 13-19 16-12 5-21 7-35 7-15 0-24-1-34-8-8-4-17-12-20-17-5-9-6-10-10-10-5 0-12 3-13 7l-2 6-2 4c-1 0-2-4-1-5l-1-1v-2c1-7 5-14 13-25 9-10 14-18 14-22 0-2-3 1-5 5l-2 3 1-7c2-6 2-7-2-5-2 2-3 5-8 19l-4 10-1-2 4-12c2-10 4-14 7-18 2-2 2-2 1-7-2-5-2-6 1-4s3 1 1-2c-4-8-3-11 2-7 2 3 3 2 1-3-3-7-2-12 1-7 3 4 4 1 2-3l-1-6c0-2 3-3 4-1s2 1 2-2c-1-3-1-4 1-5 2-2 2-2 3 0l1 2 2-5c-1-1 0-2 1-4 3-3 3-3 3-1 0 3 3 2 4-2 1-3 3-6 5-6v1c-1 3 2 2 5-2l4-3-1 6zm-126 6-2 3-3 2v-11l3 2 2 4zm144-4c-2 4 0 4 4 0l2-3-1 4c-1 4 0 4 3 0 1-2 2-2 2-1 0 2 2 2 2 0 1-1 1-1 2 1 1 3 4 3 3 0s1-2 2 1c2 5 4 5 4 1-1-4 1-4 3 0l2 2h5v2c0 2-6 5-11 5-5 1-31-1-34-2l-2-2 1-1 5-3 2-2c0 2 1 2 3-1 4-3 5-4 3-1zm154 4v3l-2-2c-2-2-2-2 0-4s3-1 2 3zm-284-1-1 3c-1 1-2 1-3-1-2-1-2-1 0-3 1-2 2-2 3-1l1 2zm270 2c-1 2-1 2-3 0-2-1-2-1 0-3 1-2 1-2 3 0 2 1 2 1 0 3zm9 5c0 1-5 6-7 6l-2-1c-1-1 0-2 2-5 3-2 4-3 5-2l2 2zm-285 0c2 3 2 3 0 4-1 2-2 2-4-1-2-2-3-3-2-4 2-2 3-1 6 1zm141 6c2 1 4 9 3 10l-2-1c-2-1-2-1-1 1v2l-4-2-4-2 1 2c3 3 2 4-1 3-5-1-5-1-3 1 1 2 1 2-1 2l-5-1-3-1 8 7c3 1 3 1 1 1-3 0-12-5-14-8-3-5-3-11 1-14 2-2 2-2 13-2 6 0 11 1 11 2zm31 0c2 2 2 4 2 10 0 4-9 12-13 12-2 0-2 0 1-2 6-3 6-5 2-4l-3-1c1-2 0-2-3 0-4 2-5 1-4-1 3-4 2-4-1-2-4 2-5 1-4-1 0-2 0-3-2-2-2 0-2 0-1-3s4-7 7-7l10-1c6 0 7 0 9 2zm-181 2-1 3c-2 2-2 2-3 0-2-5 2-8 4-3zm300 2-3 4v4c2 2 4 8 3 8l-5-3-4-3 2-3 3-4c0-3 2-6 3-6l1 3zm-181 11-2 5h5c5 0 5 0 10 5 9 8 14 18 6 13-3-3-4-3-10-3-5 1-6 1-8 3l-3 2v-2c0-3 4-7 8-8 4 0 4-2 0-2s-9 3-12 7l-2 4-1-3c-1-5-1-7 1-10s3-5 1-4c-3 1-5 5-5 9 0 3 0 3-1 2l-1-5c0-2 1-4 7-10l7-8 1-1-1 6zm-117-3c2 1 2 2-1 5-4 3-6 3-5 0 0-3 3-6 4-6l2 1zm157 9h3l2 1-4 1h-4l2 2 3 1-2 4-3 8c0 4-1 5-2 5l-4-1c-4 0-4 0-3-3l-1-8c-1-3 0-4 1-5v-1l-4-2c-1-2 0-2 3-2l5-3c2-2 3-2 4 0l4 3zm26-2 1 5 3 4 3 5c1 3 1 4-1 7l-2 2c0-2-6-8-9-9l-3 1 5 5 4 8c0 3 0 3-4-2l-5-4 1 2c3 4 4 6 0 3-4-4-8-6-11-5-6 2-6 1-4-4 3-5 6-8 11-10s4-2 8 1l3 1-1-2v-10l1 2zm106 3c3 4 4 4 2 6-3 2-8-3-8-8 0-3 0-3 2-2l4 4zm-284 5c-2 2-2 2-3 1-2-1-2-2 1-5l4-3v3l-2 4zm-7 7c-3 4-4 3-4-2v-4l3 2c2 2 2 3 1 4zm299 0v3l-2-2c-2-2-2-2 0-4s3-1 2 3zm-12-1-1 2-1-2c0-2 0-3 1-2l1 2zm-277 11v3l-4-4c-4-3-4-4-3-6 1-1 2-1 4 2 2 2 3 3 3 5zm284-5c0 2-10 11-10 10-1-2 0-5 3-9 3-3 4-4 5-3l2 2zm-156 0c1 1 1 2-4 1l-9 1c-5 1-6 0-4-2 3-1 14-2 17 0zm-3 7 2 2-3-1c-3-3-6-3-7 0-2 3-4 3-4 0 0-5 9-5 12-1zm-132 5 3 5-5 5-4 5-1-3 2-6 2-2-2-4c-5-7-1-7 5 0zm170-4c4 2 5 4 3 7-2 2-2 2-1 0 1-4-7-7-8-3-1 3-3 2-3-2s4-5 9-2zm-18 0-4 1-4-1 3-1 5 1zm144 3-1 3 1 6 1 5-10-9c0-2 7-9 8-9l1 4zm-166 0-2 1c-2 0-3-1-1-2 1-1 2-1 3 1zm-3 4 4 1c-3 2-11 1-13-2-3-3-2-4 1-2l8 3zm22-3h-3c-1-1 0-1 2-1 1 0 2 0 1 1zm21 3c-1 2-4 2-4 1l2-2 2 1zm2 5 6-1-2 2c-3 3-10 2-13-1l-2-2 2 1 9 1zm-160 5c1 5 1 5-1 4s-2-1-5 2c-4 4-4 4-6 2-1-2-1-2 4-7 2-3 5-5 6-5l2 4zm275 1c4 5 5 7 2 8l-4-3-4-3-4 3c-2 2-3 2-3 1l1-3c0-3 4-8 6-8 1 0 4 2 6 5zm-290 14c-3 4-4 3-4-3v-5l3 2c3 3 3 3 1 5zm14-4c2 2 2 2 0 3-1 2-1 2-3 0-2-1-2-1 0-3s1-2 3 0zm272-1c2 3-2 7-4 5v-5h4zm13 4v3l-2-2c-2-2-2-2 0-4s3-1 2 3zm-69 5v3l-1 3-3-6c-1-4-2-7-1-8 0-1 1-1 2 3l3 5zm-162 2c-2 3-2 3-2 1-1-1 0-3 1-6 2-3 3-3 3-1l-2 6zm212-2c3 4 5 4 8 0 3-3 4-3 5-2 1 2 1 3-4 7l-5 6-6-5c-5-5-5-5-3-7 2-3 3-3 5 1zm-270 1 3 3 4-3c3-3 5-3 5 0l-5 6-4 4-6-5c-4-4-5-6-4-7 2-2 3-1 7 2zm-8 11 5 5-5 5c-5 5-7 6-7 3l3-4c3-3 3-6 0-8-2-1-3-6-1-6l5 5zm272-1 4 5-4 5c-6 5-7 6-8 4-1-1 0-3 2-4 4-3 5-5 2-8-2-2-3-3-2-4 1-3 1-2 6 3zm26 0-2 3v3l1 5v3l-4-2c-6-5-6-7-1-12 4-4 6-4 6 0zm-272 0v3c-2 2-2 3 0 5s2 5 0 7l-5-5-5-4 4-4 4-4 2 2zm33 0c3 4-1 9-5 6-3-2-2-7 2-7l3 2zm179 1c3 3-1 8-5 5-3-2-2-7 2-7l3 2zm-154 10a228 228 0 0 0 12 16c-6-5-11-11-15-17-5-8-3-8 3 0zm126 0c-2 4-12 15-15 17l-3 2 3-3 8-11c6-7 9-9 7-5zm-190 12c-2 1-2 1-5-2l-4-3-4 3c-3 4-4 4-5 2-2-1-2-2 3-7l5-5 6 5c4 5 5 6 4 7zm46-11c3 3 0 8-4 7-3-1-4-3-3-6 1-2 5-3 7-1zm166 2v4c-2 3-7 1-7-4 0-4 6-4 7-1zm56 2c4 4 4 5 3 7-1 1-2 1-4-2l-5-3-3 3c-4 3-6 4-7 1 0-1 1-3 5-6l5-5 6 5zm-19 15-3 2-3-10v-3l4 4 4 4-2 3zm-195-6c0 4-2 6-5 4-5-2-3-7 2-7 2 0 3 1 3 3zm150-1c2 2 1 4-1 5-4 2-8-3-5-6 2-1 6-1 6 1zm-227 7-3 3v-11l3 2 3 3-3 3zm30-3c-1 3-2 4-4 2-1-2-1-2 1-4 3-4 3-3 3 2zm270 0c0 3 0 3-2 1-2-1-2-1 0-3 2-3 3-1 2 2zm-284-1c1 1 0 2-1 3-1 2-1 2-3 0-2-1-2-1 0-3 2-3 3-3 4 0zm271 0v3h-4v-3l2-2 2 2zm-264 9-4 2c-4 1-5 2-5 4 0 3-2 2-7-2-4-5-4-5-3-7 2-1 2-1 6 2l4 4 4-4c3-4 4-4 5-2v3zm61-4c3 4-1 9-5 6-3-2-2-7 2-7l3 1zm135 1c2 2 2 3 1 4-1 3-6 2-7 0s-1-3 1-4c2-3 4-2 5 0zm62 2 4 3 4-3c4-4 4-4 5-2 2 1 2 2-3 7-6 5-9 6-9 2 0-1-1-3-3-3-4-3-5-5-4-6 2-3 2-2 6 2zm-276 11 4 5-5 5c-5 5-8 6-8 2l3-4 2-3-2-4c-3-3-3-5-2-6s3 0 8 5zm88-4 2 2c0 1-3 4-5 4s-4-2-4-4c0-4 5-5 7-2zm117-1c3 4-1 9-5 6-3-2-2-7 2-7l3 1zm91 4-3 4v3c2 2 4 7 2 7l-9-9 4-5c5-4 7-4 6 0zm-197 3c3 4-1 9-5 6-3-2-2-7 2-7l3 1zm95 0 1 4c0 2-4 4-6 2-3-2-2-7 2-7l3 1zm-83 9c0 3-1 4-3 4s-5-2-5-4 3-4 5-4 3 1 3 4zm72-3c3 4-1 9-5 6-3-2-2-7 2-7l3 1zm102 7c5 5 6 6 5 7-2 1-2 0-5-3l-4-3-4 4c-4 3-4 3-6 1-2-1-2-1 3-7l6-5 5 6zm-271 0c4 3 5 5 4 6 0 3-1 2-4-1-4-4-6-4-9 0-2 2-3 3-5 2l-2-1c0-2 9-11 11-11l5 5zm43-2 3 5c-1 2-3 3-4 0 0-2-3-1-4 1-1 1-1 1-1-1 0-3 2-8 3-8l3 3zm-29-1c0 1-3 3-4 2-1 0-1-1 1-2h3zm205 5c-1 3-4 4-5 3-2-1-1-2 2-6 3-3 4-3 4-1 1 1 0 3-1 4zm33-4-2 1v-1h2zm-270 17c-3 3-3 3-4 1v-10l3 3 3 3-2 3zm85-5 6 4-5 4c-5 6-6 6-10 0l-3-3 3-4 3-5 6 4zm131-3-2 3-2 2 2 2c2 2 2 2 4 0h3c2 3 1 3-2 6l-3 3-5-5-5-6 4-3c5-3 6-4 6-2zm83 4v4l-2-2c-2-2-2-2 0-4l2-2v4zm-57 0-1 3c-2 1-2 1-3-1-2-1-2-2 0-3 1-2 2-2 3-1l1 2zm45 0-1 3h-3c-2-2-2-3-1-5 2-1 4 0 5 2zm-272 0v3h-4c-1-2-1-5 1-5l3 2zm43 4-2-1v-4c1-1 2-1 2 2v3zm214-2c-1 1-1 1 0 0l1-2-1 2zm22 5c0 1-2 4-5 6l-5 5-6-5c-4-4-5-6-4-7 2-2 3-1 7 2l3 3 3-4c3-2 4-3 5-2l2 2zm-284 1c3 3 3 3 4 2 1-2 6-5 7-5l1 2c1 1 0 3-4 6l-5 5-6-5c-4-4-5-6-4-7 2-2 3-1 7 2zm44 0c3 3 4 4 6 1 1-1 8-2 8 0l-5 5-4 4-3-2c-4-3-8-9-8-10 2-2 3-1 6 2zm46 0c2 2 3 3 4 2h4l2 1-3 4-4 3-5-5c-6-5-6-7-2-8l4 3zm104-2-5 7-5 5-4-4-4-3 2-2h4c1 2 2 1 5-1 3-3 5-4 7-2zm44 0c1 2 1 3-4 7l-4 5-5-5c-5-4-5-5-3-5 2-1 3-1 5 1l2 2 3-3c4-3 4-4 6-2zm16 4c-1 1-2 2-3 1l2-2c4-1 4-1 1 1zm-227 0-2 1v-1h2zm218 9-4 4 4 4c3 4 3 4 2 5-1 2-2 1-7-4l-6-5 5-6 5-5 3 2 2 2-4 3zm-252-1 5 6-6 5c-4 4-5 5-6 4-1-2-1-2 2-7l2-3-2-3c-2-2-3-3-2-5l1-2 6 5zm28-4c1 1 0 2-3 5l-3 4 3 4c4 3 4 4 2 5-1 2-2 2-6-3-3-2-5-5-5-6l10-10 2 1zm17 4 5 5-2 3-5 5c-3 2-4 3-5 1-2-1-2-1 2-5l3-4-3-4c-3-3-4-4-3-5 2-2 2-2 8 4zm28-4c1 2 1 3-2 5-4 4-4 6 0 9 3 3 3 3 2 4-2 2-2 2-7-3l-6-6 5-5 6-5 2 1zm18 4 5 5-6 6c-6 5-8 6-8 2l3-5 3-3-3-3c-3-3-4-4-2-6s2-2 8 4zm118-4c1 1 0 2-3 5l-3 4 3 4c4 3 4 4 2 5-1 2-2 2-7-3l-5-5 5-6c6-6 6-6 8-4zm16 4 5 5c0 1-2 4-5 6-4 5-4 5-6 3-2-1-2-2 2-5l3-4-3-4c-4-3-4-4-3-5 2-1 2-2 7 4zm46 0 5 5-5 5c-2 3-5 5-6 5-3 0-2-4 1-7s3-4-1-8c-2-2-3-3-2-4 2-2 3-1 8 4zm-157-3-1 1c-2 1-3 1-2-1h3zm64 0c1 2 0 2-2 1l-1-1h3zm118 3c0 2-1 3-2 3l1 5c2 4 3 7 1 7-1 0-9-8-9-10l4-5c5-4 7-4 5 0zm-261 7c-2 2-3 2-4 0-2-1-2-1 0-3 1-2 1-2 3 0 3 2 3 2 1 3zm45-4c2 3-2 6-5 4-1-1-1-2 1-3 2-2 2-2 4-1zm135 4c-1 2-1 2-3 0-2-1-2-1 0-3 1-2 1-2 3 0 2 1 2 1 0 3zm46-3v3c-2 1-2 1-4-1-1-1-2-2-1-3 2-1 4-1 5 1zm-246 12c4 3 5 5 5 6-1 3-3 2-6-1s-6-3-9 1c-2 3-2 3-4 1-2-1-2-2 3-7l6-5 5 5zm46 0c5 5 5 6 4 7-2 1-3 1-5-2l-4-3-5 3c-3 3-3 3-5 2-1-2-1-2 4-7l5-5 6 5zm181 0c5 5 5 6 4 7-2 1-3 1-6-2l-4-4-3 3c-3 3-4 4-5 3l-2-2c0-2 8-10 10-10l6 5zm45 0c5 4 5 5 4 6l-3 2-3-4-4-4-4 4c-3 4-4 4-5 3-2-1-1-2 3-7l7-5 5 5zm-162-1-1 2c-2 0-3 0-2-2h3zm43 0-1 2-2-2 2-1 1 1zm32 4v4c-2 1-2 1-4-1l-2-5c0-3 0-3 2-2l4 4zm-161 15-6 6-6-6-6-6 6-6 6-6 6 6 6 6-6 6zm180-12 6 6-6 6-6 6-5-6-6-6 5-6 6-6 6 6zm47 2 3 4-4 5-6 5-7-5-5-6 5-5 5-6 3 2 6 6zm-183-2 5 7-5 5-5 5-6-6-6-5 5-6 6-5 6 5zm11 0c0 3-2 3-3 1-1-1-1-1 1-3s3-1 2 2zm-98 9-3 2v-11l3 3 3 3-3 3zm300-2c0 2 0 2-2 0-2-1-2-1 0-3s3-1 2 3zm-284-3c2 1 2 1 1 3s-3 3-5 0v-3h4zm45 1v3h-4v-3l2-2 2 2zm181 0v3c-2 1-2 1-4-1-1-1-2-2-1-3 2-1 4-1 5 1zm46-1c1 1 1 2-1 3-2 2-2 2-3 0-2-1-2-2-1-3h5zm-138 4c-1 2-4-1-3-3 0-1 1-1 2 1l1 2zm47-1c-2 3-3 2-2-1l2-1v2zm-142 5 4 4 4-4c3-3 4-3 5-1 2 1 2 1-1 5-3 3-4 3-9 3-4 0-5 0-7-3s-3-4-2-5c2-3 2-3 6 1zm181 0c3 4 5 4 8 0 2-3 3-3 4-2 3 2 2 3-1 6-5 5-14 3-17-2v-4c2-2 2-1 6 2zm57 4c-3 2-4 3-8 3s-5 0-7-4c-3-3-3-5 0-5l3 3 4 3 4-4c3-3 4-3 5-1 2 1 2 1-1 5zm-283-3 3 4 4-4c3-3 4-3 6-2 2 2 1 3-2 5-2 2-3 3-7 3s-5-1-8-3c-2-3-3-4-2-5 2-2 2-1 6 2zm90 1c3 3 4 3 6 2h4l2 2c-2 1-9 2-11 1-4-2-9-9-5-9l4 4zm49 1 4-2c1-2 1-2 3 0 2 1 2 1 0 4-3 3-10 3-14-1-3-2-3-3-1-4 1-2 1-2 4 0l4 3zm55-4c1 2 1 3-1 5-3 2-4 3-8 3l-6-2c-2-1-2-2 0-3h3c2 3 3 2 7-1 3-3 3-4 5-2z"/><path d="M262 240c-1 1-1 2 1 4 3 3 4 2 4-2 0-2 0-3-2-3l-3 1zM308 241c-1 1-1 1 1 3 2 3 5 2 5-1 0-4-4-5-6-2zM279 301v10l1 7c0 2 1 1 1-3 1-6 0-18-1-20l-1 6zM475 299l-1 12v9l2-6v-13c-1-6-1-6-1-2zM364 304c-2 4-4 5-7 5-2 0-2 0 0 2 4 3 13-1 14-6 1-2 0-1-3 1-5 5-6 5-3 1l2-5c0-1-1-1-3 2zM267 324v20c0 9 0 11 1 9 2-2 3-26 1-32-2-7-3-6-2 3zM487 321c-2 6-2 19-1 28l1 6 1-16 2-19c1-6-2-5-3 1zM262 380c-9 21-13 36-14 50l1 12c1 1 1-1 1-6a199 199 0 0 1 15-63l-4 7zM491 376l1 2 1 1-1-3h-1zM493 381a204 204 0 0 1 14 61 118 118 0 0 0-14-62v1zM273 390c-6 2-11 8-11 12l3 6 3 3 2-2 5-6 3-3v-6l-1-7-4 3zM478 394c0 6 0 6 5 12l5 5 3-3 2-6c0-4-5-9-11-12l-5-3 1 7zM250 456l1 2 5 9c2 7 3 8 3 5s-1-9-4-13c-1-2-5-5-5-3zM501 458c-2 2-3 6-4 9-2 9-1 10 2 1l5-11c3-3 1-2-3 1zM443 241c-1 1-1 1 1 3 2 3 5 2 5-1 0-4-4-5-6-2zM489 241c-1 1-1 1 1 3 2 3 5 2 5-1 0-4-4-5-6-2zM379 417c-1 1 0 2 2 2 4 1 4 0 3-2 0-3-5-3-5 0zM382 422c-4 0-4 3 1 2 2 0 3-1 3-2l-1-1-3 1zM279 431c-10 6-13 31-6 45 3 7 3 8 0 6h-2c-1 2-1 4 1 4s7 4 7 6c0 4-6 5-7 2 0-1 0-2 2-2v-1c-2-1-7 0-8 2-3 5 1 14 7 19 4 3 4 3 1-2-2-3-3-8-1-8l6 5 8 7 2 1-2-4-2-6c0-2 0-2 5 2 6 6 12 10 15 10s6-2 6-3c0-2-1-2-3-1h-2c-1-3 1-4 5-4s7 3 6 6c-1 6-5 9-15 12l-4 1 6 3c7 2 11 5 13 10 1 3 1 4-1 5-4 3-11 2-10-2h5c0-2-3-4-6-4s-8 3-14 9c-5 5-6 5-6 3l2-6 2-4-2 1-9 7c-6 6-6 6-6 3l2-6c3-5 3-5-1-2-7 5-10 14-7 19 1 2 5 3 8 2v-1c-2 0-2-1-2-2 1-2 4-3 5-1 4 3 1 7-4 9-3 0-4 2-2 4h2c3-2 3-1 0 6-9 18-2 47 11 47 6 0 11-9 6-13-4-4-11-1-8 3 1 2 4 3 4 1l1-1c2 1 1 3-1 4-3 1-3 1-5-1-3-2-5-8-5-12l3-5 2-2 2 2c2 3 3 3 3 0 0-2-1-4-3-5l-3-1 3-7c5-17 19-33 32-40l8-3-1-5c-1-8 3-10 12-5a113 113 0 0 0 87 0c10-5 15-3 12 6-1 4-1 5 3 6 9 1 25 17 31 29 4 6 8 18 8 19-4 2-6 3-6 5s2 3 4 1c1-2 2-2 4 0s2 3 2 7c-1 5-3 9-6 11-2 1-2 1-4-1l-2-3c1-1 2-1 2 1 2 2 5 1 5-2 0-4-5-5-9-2-3 2-3 6 1 10 3 3 6 4 10 2 9-5 13-32 7-46-3-6-3-8-1-6 2 1 3 0 3-2l-4-3c-4-1-6-5-4-7s4-2 6 0c1 1 1 1-1 2l-3 1 3 1c4 1 8-2 8-6 1-4-2-11-7-15s-6-4-3 1l3 6v3l-6-6-9-7c-2-1-2-1 1 4 3 7 2 8-5 2-9-9-15-11-18-7-2 2-2 3-1 3l2-1 1-1 1 2c-1 3-6 4-9 1-5-4 1-12 11-15l7-3-5-1c-6-1-11-4-13-8-4-6-2-10 5-10 3 0 4 1 4 3l-1 2-1-1-1-1-2 1c0 1 4 4 7 4 2 0 10-5 15-10 5-6 7-5 3 3l-1 4 11-9 4-4v3l-2 6c-3 5-3 5 2 1s8-11 8-15c-1-4-5-6-9-5h-2l2 1c2 1 2 1 1 3-3 3-8-1-7-4l6-4c4-2 4-2 3-4s-1-2-3-1c-2 2-2 1 1-5 8-19 1-48-12-48-7 0-11 10-6 13 4 3 9 2 9-2 0-3-3-4-4-2-2 2-3 1-2-1 0-2 4-3 6-2s5 8 5 13l-2 5-2 2-2-2c-3-3-4-2-4 1l3 4 3 2c1 0-6 16-10 22-5 9-15 19-25 23-8 5-8 5-6 11 0 2-3 6-5 6l-6-2a113 113 0 0 0-87-1c-11 5-15 4-14-5l1-5-8-3c-13-7-27-23-32-40l-3-7 2-1c3 0 4-2 4-5s-1-3-3 0l-2 2-2-2c-4-3-4-7-1-12 2-6 4-8 7-6 3 1 4 3 2 5l-1-1c0-3-3-2-4 0-2 2 0 5 3 5 7 0 9-8 4-12-2-3-6-4-10-1zm-1 32c0 2 0 3-2 3-3 0-4-3-2-5s3-1 4 2zm204 0c0 2-1 2-2 2-3 0-4-3-2-4s3-1 3 2zm-201 9c1 1 0 3-1 4h-3l-1-3c1-2 5-2 5-1zm198 0c1 2-2 5-4 4v-4c1-2 4-1 4 0zm-193 12c0 3-3 4-5 2v-4c2-2 4-1 5 2zm189-1c0 1-2 4-4 4s-3-3-1-4c2-2 4-2 5 0zm-183 10-1 3h-4c-2-2-1-5 2-5l3 2zm176 1c0 2-3 3-4 1-2-2 0-4 2-4s2 1 2 2zm-169 7c0 3-2 4-4 3l-1-3c0-2 0-2 2-2s3 1 3 2zm162 0c0 3-3 4-4 2-2-2 0-4 2-4s2 1 2 2zm-79 13 2 2c0 2 3 3 5 0l4-1 3 1-2 2c-4 3-2 3 2 1l6-2c2 0 2 0 0 2l-2 2h3c7-2 10-2 10-1l-2 2h3c6 0 9 0 7 3-1 1-1 1 4 1l6 1c2 2 2 2 0 3l-7 1c-5 0-5 0-3 1v3h-10c2 2 2 2 1 3l-5-1c-5-2-7-1-5 1s2 2 0 2l-6-2c-4-3-6-2-2 1l2 2-2 1-5-1c-2-3-5-2-5 0s-2 3-7 3c-3 0-4 0-5-2-2-3-4-4-6-1-1 1-5 2-6 0l1-2 2-2c0-1-1-1-4 1l-6 2h-3l3-2 1-2-6 1-5 1c-1-1-1-1 1-3h-9c-2-1-2-1 0-3 1-1 1-1-4-1l-7-1c-2-2-2-2 0-3l7-1c5 0 5 0 4-1-2-2-2-2 0-3h9c-2-2-2-2-1-3l6 1c5 2 7 1 4-1l-2-2h2l6 2c4 2 6 1 2-2v-2l5 1c4 3 5 3 6 0s2-3 5-3l5 1zm-83 41c-1 3-4 4-5 2s1-4 3-4 2 1 2 2zm162 1c0 2-3 3-4 1-2-1 0-4 2-4s2 1 2 3zm-170 8c0 2-3 3-4 1-2-1 0-4 2-4s2 1 2 3zm177 0c0 2-3 3-4 1-2-1 0-4 2-4s2 1 2 3zm-182 9c0 3-3 4-5 2v-4c2-2 4-1 5 2zm188-2c1 2 0 5-2 5l-3-4c1-2 3-2 5-1zm-193 10c1 2 0 5-2 5-3 0-4-3-2-4 1-2 2-2 4-1zm198 1c1 2-1 4-3 4-2-1-3-4-1-5s4 0 4 1zm-201 11-1 3c-1 2-5-1-4-4 1-2 4-1 5 1zm204-1c1 1 0 3-1 3 0 1-2 2-3 1-1 0-2-3 0-4 1-2 4-1 4 0z"/><path d="m364 526-4 1c-2 3 3 4 16 5 15 0 25-3 16-6h-28zM329 510l-1 2h4l2-2h-5zM422 510l3 2c3 2 3 2 3 0l-1-2h-5zM289 522c4 1 12 1 15-1 1-1-2-1-8-1-10 0-10 0-7 2zM454 522c5 1 13 1 15-1l-10-1h-9l4 2zM289 535l-2 2h9c7 0 9 0 8-1-3-2-12-2-15-1zM455 535c-6 1-4 2 5 2 7 0 9 0 8-1s-10-2-13-1zM328 545c0 3 1 3 4 2l3-1-3-1c-4-2-4-2-4 0zM424 545l-3 2 3 1 3-2c2-3 1-3-3-1zM436 459l2 3c4 2 4 4 0 4-5-2-5-2-6 0l2 2c3 1 6 4 5 5l-5-2h-6v2c2 0 7 5 6 5l-5-1c-3-1-5-2-6-1s0 2 2 3l5 3h-13c-1 0-1 1 3 1l6 3c2 2 2 2 4 1 4-2 11-10 13-17 3-8 3-9 0-11h-7zM316 463c-5 3-6 6-3 13l1 4 2-2c0-2 3-4 5-5l4-3c0-2-3-2-6-1-5 3-6 2-2-1 2-2 3-4 2-5h-3zM321 477c-7 5-7 5-1 10 5 4 7 5 11 1l7-4c4 0 5-2 1-2-2 0-3-1-3-2-1-3-3-3-11 3-2 2-3 2-4 1s0-2 5-6c4-3 5-3 3-4-1-1-5 1-8 3zM324 567c-6 3-11 11-13 19 0 3 0 4 4 7 3 3 3 3 4 1 1-1 0-2-2-4-4-5-4-5 1-3 4 2 7 2 7 0l-4-3c-4-2-7-5-6-7l6 3c6 3 9 4 9 2l-4-3c-5-3-6-5-5-6 1-2 2-1 6 2 6 5 10 5 9 2-1-2 0-2 2-2 4 0 4-2 0-2l-7-4c-4-3-5-3-7-2zM427 571l-6 2c-4 1-5 2-4 3l5-1h7l-4 3c-3 1-3 2-2 3s3 0 6-1l5-2c1 1-3 5-5 5-2 1-2 4 1 4l4-2c3-1 6-1 4 2l-4 2-2 2h6c4-1 4 1 0 4-4 2-3 4 2 3 6 0 6-2 5-8-2-6-10-18-14-20-3-1-3-1-5 1zM496 583c0 5 3 13 6 16 4 4 4 4 1-2l-5-11c-2-6-2-6-2-3zM257 587l-5 10c-3 5-3 5 0 4 3-2 7-11 7-16l-1-5-1 7zM506 622a204 204 0 0 1-15 60c1 1 10-23 12-33l4-23c0-13-1-16-2-4zM248 628a129 129 0 0 0 15 51l-3-11a194 194 0 0 1-11-51l-1 11zM265 649c-3 4-3 6-1 10s10 10 13 10l1-7v-6l-6-5-5-5-2 3zM483 651c-5 5-5 6-5 12v6c2 0 9-4 12-8 4-4 4-8 0-12l-2-3-5 5zM267 713v20c-1 9 0 10 2 3 2-6 1-28-1-32-1-2-1 0-1 9zM487 706c-2 6-2 30 0 33 1 3 3 2 2-2l-1-19c0-14-1-16-1-13zM280 740l-1 6c-1 4 0 18 1 14 1-3 2-14 1-19-1-4-1-4-1-1zM474 747c0 13 1 17 3 9l-1-13-2-7v11zM357 746c-2 1-1 2 2 2 2 1 4 2 5 5 3 4 3 4 3 1l-2-4c-4-4-1-3 3 1 5 4 5 2 1-3-4-3-8-4-12-2zM379 634c-1 1 0 1 3 1 5 0 5-2 1-2l-4 1zM381 638c-2 0-3 1-2 2 0 2 5 3 5 1l1-2-1-2-3 1zM309 769c-3 2-2 4 2 4 3-1 4-4 2-6-1-1-2 0-4 1zM263 813c-2 2-2 2-1 4l3 1c2 0 3-1 3-3 0-4-2-5-5-2zM443 813c-1 2-1 2 1 4l2 1c2-1 3-4 3-5-1-3-3-2-6 0zM490 813c-2 2-2 2-1 4 3 2 6 0 6-3s-3-4-5-1zM309 813c-1 2-2 3-1 4 2 2 5 1 6-1 1-5-3-7-5-3zM127 362c-2 2-2 4-1 4 2 0 4-1 4-4s-1-3-3 0zM108 394c-1 3-1 3 2 3 4 0 6-2 4-4-1-2-5-1-6 1zM625 362c0 2 3 4 4 4 2 0 1-4-1-5-3-1-3-1-3 1zM641 393c-1 2 1 4 4 4s4-2 2-4h-6zM184 413l1 2c0 1 3-1 3-3s-3-1-4 0zM182 423v3c2 0 3-2 3-4l-3 1zM177 433c-2 1-1 3 1 2l1-2c0-1-1-2-2 0zM568 412c-1 1 1 4 2 4l1-2c0-3-2-4-3-2zM571 424l2 2c1 0 2 0 1-2 0-2-3-3-3 0zM576 433l3 2c1-1 0-3-2-3l-1 1zM644 445c-1 1-1 2 1 2l1-2c0-1-1-2-2 0zM634 454c-2 1-1 4 1 4l2-2c0-2-2-3-3-2zM629 469c-3 2-2 5 2 5 3 0 3 0 3-2s-1-3-2-3h-4zM110 445v2l2-1c1-1-1-2-2-1zM118 455l1 2c1 2 4 0 4-2-1-2-4-3-5 0zM122 470c-2 2 0 4 3 4 2 0 3 0 3-2 0-4-4-5-6-3zM95 462l-2 2c1 1 6-1 6-2 0-2-2-2-4 0zM657 462l3 2c2 0 2 0 1-2-1-3-4-3-4 0zM181 515c0 1 1 3 3 3s3-3 1-4h-4zM569 515c-1 2 2 3 3 3l2-2c0-2-3-3-5-1zM140 519l-6 3-6 5-2 1 3 2 7 5c3 3 4 4 9 3l10-1 3-2-7-1-13-3c-5-3-5-3-3-4 3-2 17-5 21-5h4l-4-2c-5-1-12-2-16-1zM607 519l-6 1-4 1 8 2c8 1 18 4 17 6-1 1-10 4-18 5l-7 2 6 1c9 3 12 2 20-4l6-5-5-4c-8-5-13-7-17-6zM94 594c0 2 3 3 4 2v-2h-4zM657 594v2c1 1 4 0 4-2 1-2-2-2-4 0zM570 541l2 2c2 0 2 0 2-2-1-2-4-3-4 0zM182 540c-2 1-1 3 2 3l2-2c0-2-3-3-4-1zM121 585l1 3c2 2 5 0 6-3 0-2 0-2-3-2l-4 2zM118 601l1 2c1 2 4 0 4-2-1-2-4-2-5 0zM109 611c0 2 2 2 3 0 1-1 1-1-1-1l-2 1zM628 584c-2 1-1 3 1 4 3 1 5 0 5-3 0-2 0-2-3-2l-3 1zM633 601c0 2 1 3 2 3s2-1 2-3c0-1 0-2-2-2s-2 1-2 2zM643 611c1 2 3 2 3 1l-2-2-1 1zM176 623l2 2 1-2-2-2-1 2zM181 633c0 1 3 3 4 2l-1-2c0-2-3-3-3-1zM184 643c0 1 1 3 3 3v-3c0-2-2-2-3 0zM577 622v3c2 0 3-3 2-3h-2zM572 632v3l2-2c1-2-1-3-2-1zM568 643c-1 1-1 3 2 3l1-2c0-3-1-4-3-1zM95 737c-2 1-1 3 1 3 3 0 5-2 5-3h-6zM110 750c-1 1-1 2 1 2l1-1c0-2-1-2-2-1zM100 753l3 3 1-3c0-1-3-2-4 0zM93 760l1 2c1 2 5-1 4-3s-4-1-5 1zM178 801c-3 2-2 10 0 13 3 2 8 2 9 0 2-3 0-5-2-3s-3 1-3-1c0-7 13 0 21 11 2 3 2 3 0 3l4 3c5 5 5 6 0 4l-2-1 2 2 6 5-4-1c-1 1 0 2 4 4 6 4 8 6 4 4-8-4-10-2-1 2l5 4-4-1h-3l5 2a524 524 0 0 0 19 10l4 3-5-5a608 608 0 0 1-42-54c-5-6-6-6-11-6l-6 2zM157 818c8 4 12 6 24 17 20 18 28 22 12 7-19-18-30-25-40-27-3-1-2 0 4 3zM156 823l1 3c0 3 2 1 2-2l-1-3c-2 0-2 0-2 2zM153 825l-6 6c-5 5-6 8-3 12l11 5-1-1c-2 0-4-6-4-10 0-3 1-4 3-6l2-5c0-4-2-5-2-1z"/><path d="M166 828c1 2 4 3 4 1 0-1-3-3-5-3-1 0-1 1 1 2zM175 834l3 2-1-2c-3-3-5-3-3 0zM118 847c0 1 2 3 5 3 2 0 4-2 2-3h-7zM271 865h2l-2-1v1zM269 868h4c1-1 0-1-2-1s-3 0-2 1zM302 870l2 2 5 8c3 5 4 6 4 4v-4l-1-3c0-2 0-2-1-1h-1c0-1-3-5-6-6h-2zM231 872c-2 3-3 4-1 4s4-3 4-4c0-2-1-2-3 0zM190 878l-9 11c-4 3-4 3-13 3-21 0-30 5-30 16 0 2 1 3 7 6l8 3-4-4c-5-3-3-4 2-1l6 1c2 0 2 0 0-2-4-2-2-3 2-2l6 1v-1c-3-2-2-3 4-3 5 0 5 0 3-1-1-2-1-2 3-2s4 0 3-1c-3-2-1-3 3-3h5l-3-2-2-2h2l4-1v-2c-3 0-3-2 0-3l2-1 4-8c4-6 5-9 3-9l-6 7zM245 877l3 2c1-1-2-4-4-4l1 2zM251 882c2 2 3 3 4 2 2 0 1-2-1-3-4-1-4-1-3 1zM289 885c0 2 6 7 11 10 10 5 10 4 1-3-8-6-12-8-12-7zM258 887c0 1 4 3 5 2 1 0 1-1-1-2h-4z"/><path d="M309 892c3 8 8 14 17 20l4 2h-5l-17-5-13-4c-1 1 13 7 20 8l15 2h8l-4-2c-9-4-15-9-22-19-4-6-4-6-3-2zM267 892c0 1 4 4 6 4l1-1c-1-2-7-4-7-3zM654 737c0 1 3 3 6 3 2 0 3-1 1-3h-7zM644 750l1 2 1-2c0-1-1-2-2 0zM651 754l2 1 2-1-2-2-2 2zM658 760l2 3c2 0 2 0 2-2l-2-3c-2 0-2 0-2 2zM565 800c-3 2-7 7-18 22a408 408 0 0 1-31 40l24-13h-3c-3 1-3 1 2-2l5-4c1-1-1-1-4 1l-3 1c-2 0 0-2 5-5 6-3 7-6 1-3a642 642 0 0 0 6-5l1-2-2 1c-4 2-3 0 1-4 3-2 4-4 3-4-3 2-1-1 5-7 7-8 13-10 16-7 2 2 0 4-3 2-1-2-3 0-2 2 0 3 5 3 8 2 4-2 5-11 1-14-2-2-7-2-12-1zM598 815c-7 3-15 8-29 21a1452 1452 0 0 1-19 18c2 0 11-7 22-17 12-11 18-15 27-20 7-3 6-4-1-2zM596 823l1 3c0 2 1 1 2-1 1-4 1-4-1-4l-2 2zM601 823c-2 1-1 6 1 7 5 2 5 11 0 17l-2 2 5-2c7-4 10-7 8-11l-5-5-5-6-2-2z"/><path d="M588 827c-3 1-4 3-2 3l4-2c3-3 3-3-2-1zM579 833c-2 1-4 3-2 3s5-2 5-4l-3 1zM630 848v2c3 1 7-1 7-2 1-3-5-3-7 0zM546 864l4 2c5 1 6 0 4-2h-8zM483 865h2l-2-1v1zM483 868h3c1-1 0-1-1-1-2 0-3 0-2 1zM449 871l-3 4c-1 2-1 2-2 1s-1-1-1 1l-1 3-1 3 1 5 4-7 6-9c2-3 1-3-3-1zM521 872c0 2 2 4 4 4s1-2-1-4-3-2-3 0zM558 872l6 11 3 5v1l3 1c1 1 1 2-1 3s-2 1 1 2c5 0 5 1 2 3-2 0-2 0 1 1 6 0 6 1 5 3-1 1-1 1 3 1 3 0 3 0 2 2-2 1-2 1 3 1 6 0 7 1 4 3-1 1-1 1 1 1l5-1c5-1 7 0 3 2s0 3 5 1c6-3 7-2 2 2s-5 4 4 0l7-3v-5c-1-4-1-6-4-8-4-4-8-5-23-6-12 0-12 0-15-3l-9-10c-5-7-8-9-8-8zM510 875c-2 1-3 4-1 3l4-4-3 1zM501 882l-1 2c1 1 3 1 4-2 1-2 0-2-3 0zM457 890l-10 8c1 1 12-5 15-7l5-8-10 7zM493 888l-1 2 5-3c0-1-3-1-4 1z"/><path d="M444 893c-4 7-14 16-20 19l-6 3h7c13 0 26-3 34-9 5-3 4-3-6 1-9 4-16 6-22 7h-5l4-3c6-4 12-9 14-15 3-5 2-7 0-3zM484 893c-3 1-4 3-2 3s7-4 6-4l-4 1zM107 661l1 2c2 3 6 2 6 0 1-2 0-3-3-3l-4 1zM125 692c0 2 3 5 4 5 2 0 1-5-1-5h-3zM642 661c-2 1-1 4 1 4 3 0 5-2 5-4 0-1-5-2-6 0zM626 692v5c1 0 4-2 4-4s-2-3-4-1zM316 936l2 2c1 1 1 1 0 0 0-2-2-3-2-2zM396 921v1l1-1v-1l-1 1zM398 926l1 1 1-1-2-1v1zM401 931l-1 2c1 1 4-1 4-2h-3zM437 938v1l1-1 1-2-2 2zM322 928c3 3 5 3 2 0l-4-3 2 3zM305 926l6 1c0-1-2-2-5-2l-1 1zM433 926l-3 3c-1 2-1 2 2 0l4-4-3 1zM445 927h2c4-1 5-2 2-2l-4 2zM95 935l1 1 1-2-1-1-1 2zM95 940c-1 1 0 1 1 1l1-1-1-1-1 1zM658 934v1c1 1 3 0 3-1h-3zM659 940l1 1 1-1-1-1-1 1zM273 939c6 5 8 5 6 2-1-2-8-6-11-6l5 4zM483 936c-3 2-8 5-8 7l3-1 7-5c5-2 4-3-2-1zM142 958l-7 4c-5 2-5 2-2 2 4 0 9-2 11-5s1-3-2-1zM96 962c-3 2-2 3 1 2l9-1c3 0 4 0 3-1H96zM303 934l2 1h1c-1-2-3-3-3-1zM450 934l-1 2 2-1c1-2 1-2-1-1zM610 957l7 6 5 1h4l-5-1-7-4-4-2zM228 948c-2 1-1 2 1 2l4-1-1-1h-4zM524 948c-2 1-1 2 2 2l2-1c0-2-1-2-4-1zM371 951c0 1 4 4 5 3l-4-4-1 1zM314 952c-1 1-1 1 1 1 5-2 6-3 3-3l-4 2zM436 951l4 1h1l-4-2c-2 0-2 0-1 1zM249 961l-16 4-8 2h7l18-3 18-4 6-1h-8l-17 2zM488 960l20 4 19 3h5l-7-2-14-3-18-2h-5z"/></g></svg>